%TF.GenerationSoftware,KiCad,Pcbnew,(5.1.8)-1*%
%TF.CreationDate,2021-03-14T22:30:27+01:00*%
%TF.ProjectId,Amiga Mouse Switch Faceplate B1,416d6967-6120-44d6-9f75-736520537769,rev?*%
%TF.SameCoordinates,Original*%
%TF.FileFunction,Profile,NP*%
%FSLAX46Y46*%
G04 Gerber Fmt 4.6, Leading zero omitted, Abs format (unit mm)*
G04 Created by KiCad (PCBNEW (5.1.8)-1) date 2021-03-14 22:30:27*
%MOMM*%
%LPD*%
G01*
G04 APERTURE LIST*
%TA.AperFunction,Profile*%
%ADD10C,0.050000*%
%TD*%
G04 APERTURE END LIST*
D10*
X179065000Y-83820000D02*
G75*
G03*
X179065000Y-83820000I-1900000J0D01*
G01*
X179065000Y-93980000D02*
G75*
G03*
X179065000Y-93980000I-1900000J0D01*
G01*
X178916000Y-102870000D02*
G75*
G03*
X178916000Y-102870000I-1751000J0D01*
G01*
X103986000Y-102870000D02*
G75*
G03*
X103986000Y-102870000I-1751000J0D01*
G01*
X171196000Y-108648500D02*
X171577000Y-108648500D01*
X170942000Y-104648000D02*
G75*
G02*
X171069000Y-104775000I0J-127000D01*
G01*
X170942000Y-104648000D02*
X167513000Y-104648000D01*
X167386000Y-104775000D02*
G75*
G02*
X167513000Y-104648000I127000J0D01*
G01*
X171196000Y-108648500D02*
G75*
G02*
X171069000Y-108521500I0J127000D01*
G01*
X167386000Y-104775000D02*
X167386000Y-108521500D01*
X171069000Y-108521500D02*
X171069000Y-104775000D01*
X167386000Y-108521500D02*
G75*
G02*
X167259000Y-108648500I-127000J0D01*
G01*
X137287000Y-108648500D02*
X137668000Y-108648500D01*
X137160000Y-108521500D02*
X137160000Y-104775000D01*
X133477000Y-108521500D02*
G75*
G02*
X133350000Y-108648500I-127000J0D01*
G01*
X133477000Y-104775000D02*
X133477000Y-108521500D01*
X137033000Y-104648000D02*
G75*
G02*
X137160000Y-104775000I0J-127000D01*
G01*
X137287000Y-108648500D02*
G75*
G02*
X137160000Y-108521500I0J127000D01*
G01*
X137033000Y-104648000D02*
X133604000Y-104648000D01*
X133477000Y-104775000D02*
G75*
G02*
X133604000Y-104648000I127000J0D01*
G01*
X146050000Y-108648500D02*
X147002500Y-108648500D01*
X145923000Y-108521500D02*
X145923000Y-104775000D01*
X142240000Y-108521500D02*
G75*
G02*
X142113000Y-108648500I-127000J0D01*
G01*
X142240000Y-104775000D02*
X142240000Y-108521500D01*
X145796000Y-104648000D02*
G75*
G02*
X145923000Y-104775000I0J-127000D01*
G01*
X146050000Y-108648500D02*
G75*
G02*
X145923000Y-108521500I0J127000D01*
G01*
X145796000Y-104648000D02*
X142367000Y-104648000D01*
X142240000Y-104775000D02*
G75*
G02*
X142367000Y-104648000I127000J0D01*
G01*
X112141000Y-108648500D02*
X113093500Y-108648500D01*
X108331000Y-108521500D02*
G75*
G02*
X108204000Y-108648500I-127000J0D01*
G01*
X108331000Y-104775000D02*
X108331000Y-108521500D01*
X108331000Y-104775000D02*
G75*
G02*
X108458000Y-104648000I127000J0D01*
G01*
X111887000Y-104648000D02*
X108458000Y-104648000D01*
X112141000Y-108648500D02*
G75*
G02*
X112014000Y-108521500I0J127000D01*
G01*
X111887000Y-104648000D02*
G75*
G02*
X112014000Y-104775000I0J-127000D01*
G01*
X112014000Y-108521500D02*
X112014000Y-104775000D01*
X106553000Y-112395000D02*
X102235000Y-112395000D01*
X138938000Y-112395000D02*
X140462000Y-112395000D01*
X151130000Y-71755000D02*
X177165000Y-71755000D01*
X147637500Y-108013500D02*
G75*
G02*
X147002500Y-108648500I-635000J0D01*
G01*
X148272500Y-100266500D02*
X165036500Y-100266500D01*
X147637500Y-100901500D02*
X147637500Y-108013500D01*
X141097000Y-109283500D02*
X141097000Y-111760000D01*
X172847000Y-112395000D02*
G75*
G02*
X172212000Y-111760000I0J635000D01*
G01*
X141097000Y-111760000D02*
G75*
G02*
X140462000Y-112395000I-635000J0D01*
G01*
X171577000Y-108648500D02*
G75*
G02*
X172212000Y-109283500I0J-635000D01*
G01*
X141097000Y-109283500D02*
G75*
G02*
X141732000Y-108648500I635000J0D01*
G01*
X166306500Y-108648500D02*
G75*
G02*
X165671500Y-108013500I0J635000D01*
G01*
X147637500Y-100901500D02*
G75*
G02*
X148272500Y-100266500I635000J0D01*
G01*
X165671500Y-100901500D02*
X165671500Y-108013500D01*
X166306500Y-108648500D02*
X167259000Y-108648500D01*
X172212000Y-109283500D02*
X172212000Y-111760000D01*
X141732000Y-108648500D02*
X142113000Y-108648500D01*
X165036500Y-100266500D02*
G75*
G02*
X165671500Y-100901500I0J-635000D01*
G01*
X138938000Y-112395000D02*
G75*
G02*
X138303000Y-111760000I0J635000D01*
G01*
X107188000Y-111760000D02*
G75*
G02*
X106553000Y-112395000I-635000J0D01*
G01*
X138303000Y-109283500D02*
X138303000Y-111760000D01*
X137668000Y-108648500D02*
G75*
G02*
X138303000Y-109283500I0J-635000D01*
G01*
X132397500Y-108648500D02*
X133350000Y-108648500D01*
X107188000Y-109283500D02*
X107188000Y-111760000D01*
X107823000Y-108648500D02*
X108204000Y-108648500D01*
X107188000Y-109283500D02*
G75*
G02*
X107823000Y-108648500I635000J0D01*
G01*
X132397500Y-108648500D02*
G75*
G02*
X131762500Y-108013500I0J635000D01*
G01*
X113728500Y-108013500D02*
G75*
G02*
X113093500Y-108648500I-635000J0D01*
G01*
X131127500Y-100266500D02*
G75*
G02*
X131762500Y-100901500I0J-635000D01*
G01*
X113728500Y-100901500D02*
G75*
G02*
X114363500Y-100266500I635000J0D01*
G01*
X131762500Y-100901500D02*
X131762500Y-108013500D01*
X113728500Y-100901500D02*
X113728500Y-108013500D01*
X114363500Y-100266500D02*
X131127500Y-100266500D01*
X128905000Y-81280000D02*
X128905000Y-72390000D01*
X149860000Y-81915000D02*
X129540000Y-81915000D01*
X150495000Y-81280000D02*
X150495000Y-72390000D01*
X150495000Y-72390000D02*
G75*
G02*
X151130000Y-71755000I635000J0D01*
G01*
X150495000Y-81280000D02*
G75*
G02*
X149860000Y-81915000I-635000J0D01*
G01*
X128270000Y-71755000D02*
G75*
G02*
X128905000Y-72390000I0J-635000D01*
G01*
X129540000Y-81915000D02*
G75*
G02*
X128905000Y-81280000I0J635000D01*
G01*
X180975000Y-108585000D02*
G75*
G02*
X177165000Y-112395000I-3810000J0D01*
G01*
X177165000Y-71755000D02*
G75*
G02*
X180975000Y-75565000I0J-3810000D01*
G01*
X98425000Y-75565000D02*
G75*
G02*
X102235000Y-71755000I3810000J0D01*
G01*
X102235000Y-112395000D02*
G75*
G02*
X98425000Y-108585000I0J3810000D01*
G01*
X177165000Y-112395000D02*
X172847000Y-112395000D01*
X180975000Y-75565000D02*
X180975000Y-108585000D01*
X102235000Y-71755000D02*
X128270000Y-71755000D01*
X98425000Y-108585000D02*
X98425000Y-75565000D01*
M02*
