%TF.GenerationSoftware,KiCad,Pcbnew,(5.1.8)-1*%
%TF.CreationDate,2021-03-14T22:30:27+01:00*%
%TF.ProjectId,Amiga Mouse Switch Faceplate B1,416d6967-6120-44d6-9f75-736520537769,rev?*%
%TF.SameCoordinates,Original*%
%TF.FileFunction,Copper,L2,Bot*%
%TF.FilePolarity,Positive*%
%FSLAX46Y46*%
G04 Gerber Fmt 4.6, Leading zero omitted, Abs format (unit mm)*
G04 Created by KiCad (PCBNEW (5.1.8)-1) date 2021-03-14 22:30:27*
%MOMM*%
%LPD*%
G01*
G04 APERTURE LIST*
%TA.AperFunction,ComponentPad*%
%ADD10C,3.500000*%
%TD*%
%TA.AperFunction,Conductor*%
%ADD11C,0.254000*%
%TD*%
%TA.AperFunction,Conductor*%
%ADD12C,0.100000*%
%TD*%
G04 APERTURE END LIST*
D10*
%TO.P,M1,1*%
%TO.N,Net-(M1-Pad1)*%
X102235000Y-108585000D03*
%TD*%
%TO.P,M2,1*%
%TO.N,Net-(M1-Pad1)*%
X177165000Y-75565000D03*
%TD*%
%TO.P,M3,1*%
%TO.N,Net-(M1-Pad1)*%
X102235000Y-75565000D03*
%TD*%
%TO.P,M4,1*%
%TO.N,Net-(M1-Pad1)*%
X177165000Y-108585000D03*
%TD*%
D11*
%TO.N,Net-(M1-Pad1)*%
X128244513Y-72415666D02*
X128245001Y-72420310D01*
X128245000Y-81312418D01*
X128247758Y-81340419D01*
X128247731Y-81344255D01*
X128248631Y-81353426D01*
X128261586Y-81476677D01*
X128273615Y-81535274D01*
X128284822Y-81594028D01*
X128287486Y-81602850D01*
X128324133Y-81721238D01*
X128347308Y-81776368D01*
X128369722Y-81831847D01*
X128374049Y-81839983D01*
X128432992Y-81948998D01*
X128466437Y-81998582D01*
X128499197Y-82048645D01*
X128505022Y-82055786D01*
X128584018Y-82151276D01*
X128626467Y-82193430D01*
X128668315Y-82236165D01*
X128675416Y-82242039D01*
X128771455Y-82320367D01*
X128821281Y-82353472D01*
X128870638Y-82387267D01*
X128878744Y-82391650D01*
X128988167Y-82449832D01*
X129043459Y-82472621D01*
X129098455Y-82496193D01*
X129107258Y-82498918D01*
X129225899Y-82534737D01*
X129284583Y-82546357D01*
X129343094Y-82558794D01*
X129352250Y-82559756D01*
X129352255Y-82559757D01*
X129352259Y-82559757D01*
X129475597Y-82571850D01*
X129475598Y-82571850D01*
X129507581Y-82575000D01*
X149892419Y-82575000D01*
X149920419Y-82572242D01*
X149924255Y-82572269D01*
X149933426Y-82571369D01*
X150056677Y-82558414D01*
X150115274Y-82546385D01*
X150174028Y-82535178D01*
X150182850Y-82532514D01*
X150301238Y-82495867D01*
X150356368Y-82472692D01*
X150411847Y-82450278D01*
X150419983Y-82445951D01*
X150528998Y-82387008D01*
X150578582Y-82353563D01*
X150628645Y-82320803D01*
X150635786Y-82314978D01*
X150731276Y-82235982D01*
X150773430Y-82193533D01*
X150816165Y-82151685D01*
X150822039Y-82144584D01*
X150900367Y-82048545D01*
X150933472Y-81998719D01*
X150967267Y-81949362D01*
X150971650Y-81941256D01*
X151029832Y-81831833D01*
X151052621Y-81776541D01*
X151076193Y-81721545D01*
X151078918Y-81712742D01*
X151114737Y-81594101D01*
X151126359Y-81535408D01*
X151138794Y-81476906D01*
X151139756Y-81467750D01*
X151139757Y-81467745D01*
X151139757Y-81467741D01*
X151151850Y-81344403D01*
X151151850Y-81344402D01*
X151155000Y-81312419D01*
X151155000Y-77234609D01*
X175674997Y-77234609D01*
X175861073Y-77575766D01*
X176278409Y-77791513D01*
X176729815Y-77921696D01*
X177197946Y-77961313D01*
X177664811Y-77908842D01*
X178112468Y-77766297D01*
X178468927Y-77575766D01*
X178655003Y-77234609D01*
X177165000Y-75744605D01*
X175674997Y-77234609D01*
X151155000Y-77234609D01*
X151155000Y-75597946D01*
X174768687Y-75597946D01*
X174821158Y-76064811D01*
X174963703Y-76512468D01*
X175154234Y-76868927D01*
X175495391Y-77055003D01*
X176985395Y-75565000D01*
X177344605Y-75565000D01*
X178834609Y-77055003D01*
X179175766Y-76868927D01*
X179391513Y-76451591D01*
X179521696Y-76000185D01*
X179561313Y-75532054D01*
X179508842Y-75065189D01*
X179366297Y-74617532D01*
X179175766Y-74261073D01*
X178834609Y-74074997D01*
X177344605Y-75565000D01*
X176985395Y-75565000D01*
X175495391Y-74074997D01*
X175154234Y-74261073D01*
X174938487Y-74678409D01*
X174808304Y-75129815D01*
X174768687Y-75597946D01*
X151155000Y-75597946D01*
X151155000Y-73895391D01*
X175674997Y-73895391D01*
X177165000Y-75385395D01*
X178655003Y-73895391D01*
X178468927Y-73554234D01*
X178051591Y-73338487D01*
X177600185Y-73208304D01*
X177132054Y-73168687D01*
X176665189Y-73221158D01*
X176217532Y-73363703D01*
X175861073Y-73554234D01*
X175674997Y-73895391D01*
X151155000Y-73895391D01*
X151155000Y-72422275D01*
X151155666Y-72415487D01*
X151160301Y-72415000D01*
X177132721Y-72415000D01*
X177776222Y-72478096D01*
X178364164Y-72655606D01*
X178906436Y-72943937D01*
X179382364Y-73332094D01*
X179773845Y-73805314D01*
X180065951Y-74345552D01*
X180247563Y-74932244D01*
X180315000Y-75573879D01*
X180315001Y-108552711D01*
X180251904Y-109196221D01*
X180074394Y-109784164D01*
X179786063Y-110326436D01*
X179397906Y-110802364D01*
X178924686Y-111193845D01*
X178384449Y-111485950D01*
X177797756Y-111667563D01*
X177156130Y-111735000D01*
X172879275Y-111735000D01*
X172872487Y-111734335D01*
X172872000Y-111729699D01*
X172872000Y-110254609D01*
X175674997Y-110254609D01*
X175861073Y-110595766D01*
X176278409Y-110811513D01*
X176729815Y-110941696D01*
X177197946Y-110981313D01*
X177664811Y-110928842D01*
X178112468Y-110786297D01*
X178468927Y-110595766D01*
X178655003Y-110254609D01*
X177165000Y-108764605D01*
X175674997Y-110254609D01*
X172872000Y-110254609D01*
X172872000Y-109251081D01*
X172869242Y-109223081D01*
X172869269Y-109219245D01*
X172868369Y-109210074D01*
X172855414Y-109086823D01*
X172843387Y-109028233D01*
X172832178Y-108969471D01*
X172829514Y-108960649D01*
X172792867Y-108842262D01*
X172769692Y-108787132D01*
X172747278Y-108731653D01*
X172742951Y-108723517D01*
X172685870Y-108617946D01*
X174768687Y-108617946D01*
X174821158Y-109084811D01*
X174963703Y-109532468D01*
X175154234Y-109888927D01*
X175495391Y-110075003D01*
X176985395Y-108585000D01*
X177344605Y-108585000D01*
X178834609Y-110075003D01*
X179175766Y-109888927D01*
X179391513Y-109471591D01*
X179521696Y-109020185D01*
X179561313Y-108552054D01*
X179508842Y-108085189D01*
X179366297Y-107637532D01*
X179175766Y-107281073D01*
X178834609Y-107094997D01*
X177344605Y-108585000D01*
X176985395Y-108585000D01*
X175495391Y-107094997D01*
X175154234Y-107281073D01*
X174938487Y-107698409D01*
X174808304Y-108149815D01*
X174768687Y-108617946D01*
X172685870Y-108617946D01*
X172684007Y-108614502D01*
X172650565Y-108564922D01*
X172617803Y-108514855D01*
X172611978Y-108507714D01*
X172532982Y-108412224D01*
X172490566Y-108370103D01*
X172448684Y-108327334D01*
X172441584Y-108321461D01*
X172345545Y-108243133D01*
X172295703Y-108210018D01*
X172246362Y-108176233D01*
X172238256Y-108171850D01*
X172128832Y-108113668D01*
X172073554Y-108090884D01*
X172018545Y-108067307D01*
X172009741Y-108064582D01*
X171891101Y-108028762D01*
X171832372Y-108017133D01*
X171773905Y-108004706D01*
X171764747Y-108003744D01*
X171764744Y-108003743D01*
X171764741Y-108003743D01*
X171729000Y-108000239D01*
X171729000Y-106915391D01*
X175674997Y-106915391D01*
X177165000Y-108405395D01*
X178655003Y-106915391D01*
X178468927Y-106574234D01*
X178051591Y-106358487D01*
X177600185Y-106228304D01*
X177132054Y-106188687D01*
X176665189Y-106241158D01*
X176217532Y-106383703D01*
X175861073Y-106574234D01*
X175674997Y-106915391D01*
X171729000Y-106915391D01*
X171729000Y-104742581D01*
X171726277Y-104714929D01*
X171726281Y-104714291D01*
X171725381Y-104705120D01*
X171724261Y-104694460D01*
X171719450Y-104645617D01*
X171708244Y-104608678D01*
X171699555Y-104563123D01*
X171696892Y-104554302D01*
X171689563Y-104530625D01*
X171666384Y-104475484D01*
X171643970Y-104420007D01*
X171639643Y-104411871D01*
X171627854Y-104390068D01*
X171594413Y-104340490D01*
X171561654Y-104290428D01*
X171555830Y-104283287D01*
X171540031Y-104264189D01*
X171497602Y-104222055D01*
X171455735Y-104179300D01*
X171448634Y-104173426D01*
X171429426Y-104157760D01*
X171379609Y-104124661D01*
X171330229Y-104090851D01*
X171322123Y-104086468D01*
X171300238Y-104074833D01*
X171244960Y-104052050D01*
X171189963Y-104028478D01*
X171181159Y-104025753D01*
X171157431Y-104018589D01*
X171109360Y-104009070D01*
X171071383Y-103997550D01*
X171032683Y-103993738D01*
X171031080Y-103993570D01*
X171031075Y-103993569D01*
X171031070Y-103993569D01*
X171006412Y-103991151D01*
X170974419Y-103988000D01*
X167480581Y-103988000D01*
X167452929Y-103990723D01*
X167452291Y-103990719D01*
X167443120Y-103991619D01*
X167432460Y-103992739D01*
X167383617Y-103997550D01*
X167346678Y-104008756D01*
X167301123Y-104017445D01*
X167292302Y-104020108D01*
X167268625Y-104027437D01*
X167213484Y-104050616D01*
X167158007Y-104073030D01*
X167149871Y-104077357D01*
X167128068Y-104089146D01*
X167078490Y-104122587D01*
X167028428Y-104155346D01*
X167021287Y-104161170D01*
X167002189Y-104176969D01*
X166960055Y-104219398D01*
X166917300Y-104261265D01*
X166911426Y-104268366D01*
X166895760Y-104287574D01*
X166862661Y-104337391D01*
X166828851Y-104386771D01*
X166824468Y-104394877D01*
X166812833Y-104416762D01*
X166790050Y-104472040D01*
X166766478Y-104527037D01*
X166763753Y-104535841D01*
X166756589Y-104559569D01*
X166747070Y-104607643D01*
X166735550Y-104645618D01*
X166731740Y-104684302D01*
X166731570Y-104685920D01*
X166731569Y-104685925D01*
X166731569Y-104685930D01*
X166729186Y-104710234D01*
X166726000Y-104742582D01*
X166726001Y-107988500D01*
X166338775Y-107988500D01*
X166331987Y-107987835D01*
X166331500Y-107983199D01*
X166331500Y-102631720D01*
X174745706Y-102631720D01*
X174745706Y-103108280D01*
X174838678Y-103575682D01*
X175021049Y-104015965D01*
X175285812Y-104412210D01*
X175622790Y-104749188D01*
X176019035Y-105013951D01*
X176459318Y-105196322D01*
X176926720Y-105289294D01*
X177403280Y-105289294D01*
X177870682Y-105196322D01*
X178310965Y-105013951D01*
X178707210Y-104749188D01*
X179044188Y-104412210D01*
X179308951Y-104015965D01*
X179491322Y-103575682D01*
X179584294Y-103108280D01*
X179584294Y-102631720D01*
X179491322Y-102164318D01*
X179308951Y-101724035D01*
X179044188Y-101327790D01*
X178707210Y-100990812D01*
X178310965Y-100726049D01*
X177870682Y-100543678D01*
X177403280Y-100450706D01*
X176926720Y-100450706D01*
X176459318Y-100543678D01*
X176019035Y-100726049D01*
X175622790Y-100990812D01*
X175285812Y-101327790D01*
X175021049Y-101724035D01*
X174838678Y-102164318D01*
X174745706Y-102631720D01*
X166331500Y-102631720D01*
X166331500Y-100869081D01*
X166328742Y-100841081D01*
X166328769Y-100837245D01*
X166327869Y-100828074D01*
X166314914Y-100704823D01*
X166302887Y-100646233D01*
X166291678Y-100587471D01*
X166289014Y-100578649D01*
X166252367Y-100460262D01*
X166229192Y-100405132D01*
X166206778Y-100349653D01*
X166202451Y-100341517D01*
X166143507Y-100232502D01*
X166110065Y-100182922D01*
X166077303Y-100132855D01*
X166071478Y-100125714D01*
X165992482Y-100030224D01*
X165950066Y-99988103D01*
X165908184Y-99945334D01*
X165901084Y-99939461D01*
X165805045Y-99861133D01*
X165755203Y-99828018D01*
X165705862Y-99794233D01*
X165697756Y-99789850D01*
X165588332Y-99731668D01*
X165533054Y-99708884D01*
X165478045Y-99685307D01*
X165469241Y-99682582D01*
X165350601Y-99646762D01*
X165291872Y-99635133D01*
X165233405Y-99622706D01*
X165224247Y-99621744D01*
X165224244Y-99621743D01*
X165224241Y-99621743D01*
X165100902Y-99609650D01*
X165068919Y-99606500D01*
X148240081Y-99606500D01*
X148212081Y-99609258D01*
X148208245Y-99609231D01*
X148199074Y-99610131D01*
X148075823Y-99623086D01*
X148017233Y-99635113D01*
X147958471Y-99646322D01*
X147949649Y-99648986D01*
X147831262Y-99685633D01*
X147776132Y-99708808D01*
X147720653Y-99731222D01*
X147712517Y-99735549D01*
X147603502Y-99794493D01*
X147553922Y-99827935D01*
X147503855Y-99860697D01*
X147496714Y-99866522D01*
X147401224Y-99945518D01*
X147359103Y-99987934D01*
X147316334Y-100029816D01*
X147310461Y-100036916D01*
X147232133Y-100132955D01*
X147199018Y-100182797D01*
X147165233Y-100232138D01*
X147160850Y-100240244D01*
X147102668Y-100349668D01*
X147079884Y-100404946D01*
X147056307Y-100459955D01*
X147053582Y-100468759D01*
X147017762Y-100587399D01*
X147006141Y-100646092D01*
X146993706Y-100704595D01*
X146992744Y-100713753D01*
X146992744Y-100713754D01*
X146992743Y-100713759D01*
X146980650Y-100837098D01*
X146977500Y-100869082D01*
X146977501Y-107981215D01*
X146976835Y-107988013D01*
X146972199Y-107988500D01*
X146583000Y-107988500D01*
X146583000Y-104742581D01*
X146580277Y-104714929D01*
X146580281Y-104714291D01*
X146579381Y-104705120D01*
X146578261Y-104694460D01*
X146573450Y-104645617D01*
X146562244Y-104608678D01*
X146553555Y-104563123D01*
X146550892Y-104554302D01*
X146543563Y-104530625D01*
X146520384Y-104475484D01*
X146497970Y-104420007D01*
X146493643Y-104411871D01*
X146481854Y-104390068D01*
X146448413Y-104340490D01*
X146415654Y-104290428D01*
X146409830Y-104283287D01*
X146394031Y-104264189D01*
X146351602Y-104222055D01*
X146309735Y-104179300D01*
X146302634Y-104173426D01*
X146283426Y-104157760D01*
X146233609Y-104124661D01*
X146184229Y-104090851D01*
X146176123Y-104086468D01*
X146154238Y-104074833D01*
X146098960Y-104052050D01*
X146043963Y-104028478D01*
X146035159Y-104025753D01*
X146011431Y-104018589D01*
X145963360Y-104009070D01*
X145925383Y-103997550D01*
X145886683Y-103993738D01*
X145885080Y-103993570D01*
X145885075Y-103993569D01*
X145885070Y-103993569D01*
X145860412Y-103991151D01*
X145828419Y-103988000D01*
X142334581Y-103988000D01*
X142306929Y-103990723D01*
X142306291Y-103990719D01*
X142297120Y-103991619D01*
X142286460Y-103992739D01*
X142237617Y-103997550D01*
X142200678Y-104008756D01*
X142155123Y-104017445D01*
X142146302Y-104020108D01*
X142122625Y-104027437D01*
X142067484Y-104050616D01*
X142012007Y-104073030D01*
X142003871Y-104077357D01*
X141982068Y-104089146D01*
X141932490Y-104122587D01*
X141882428Y-104155346D01*
X141875287Y-104161170D01*
X141856189Y-104176969D01*
X141814055Y-104219398D01*
X141771300Y-104261265D01*
X141765426Y-104268366D01*
X141749760Y-104287574D01*
X141716661Y-104337391D01*
X141682851Y-104386771D01*
X141678468Y-104394877D01*
X141666833Y-104416762D01*
X141644050Y-104472040D01*
X141620478Y-104527037D01*
X141617753Y-104535841D01*
X141610589Y-104559569D01*
X141601070Y-104607643D01*
X141589550Y-104645618D01*
X141585740Y-104684302D01*
X141585570Y-104685920D01*
X141585569Y-104685925D01*
X141585569Y-104685930D01*
X141583186Y-104710234D01*
X141580000Y-104742582D01*
X141580001Y-108000390D01*
X141535323Y-108005086D01*
X141476733Y-108017113D01*
X141417971Y-108028322D01*
X141409149Y-108030986D01*
X141290762Y-108067633D01*
X141235632Y-108090808D01*
X141180153Y-108113222D01*
X141172017Y-108117549D01*
X141063002Y-108176493D01*
X141013422Y-108209935D01*
X140963355Y-108242697D01*
X140956214Y-108248522D01*
X140860724Y-108327518D01*
X140818603Y-108369934D01*
X140775834Y-108411816D01*
X140769961Y-108418916D01*
X140691633Y-108514955D01*
X140658518Y-108564797D01*
X140624733Y-108614138D01*
X140620350Y-108622244D01*
X140562168Y-108731668D01*
X140539390Y-108786932D01*
X140515807Y-108841955D01*
X140513082Y-108850759D01*
X140477262Y-108969399D01*
X140465641Y-109028092D01*
X140453206Y-109086595D01*
X140452244Y-109095753D01*
X140452244Y-109095754D01*
X140452243Y-109095759D01*
X140440150Y-109219098D01*
X140437000Y-109251082D01*
X140437001Y-111727716D01*
X140436335Y-111734513D01*
X140431699Y-111735000D01*
X138970275Y-111735000D01*
X138963487Y-111734335D01*
X138963000Y-111729699D01*
X138963000Y-109251081D01*
X138960242Y-109223081D01*
X138960269Y-109219245D01*
X138959369Y-109210074D01*
X138946414Y-109086823D01*
X138934387Y-109028233D01*
X138923178Y-108969471D01*
X138920514Y-108960649D01*
X138883867Y-108842262D01*
X138860692Y-108787132D01*
X138838278Y-108731653D01*
X138833951Y-108723517D01*
X138775007Y-108614502D01*
X138741565Y-108564922D01*
X138708803Y-108514855D01*
X138702978Y-108507714D01*
X138623982Y-108412224D01*
X138581566Y-108370103D01*
X138539684Y-108327334D01*
X138532584Y-108321461D01*
X138436545Y-108243133D01*
X138386703Y-108210018D01*
X138337362Y-108176233D01*
X138329256Y-108171850D01*
X138219832Y-108113668D01*
X138164554Y-108090884D01*
X138109545Y-108067307D01*
X138100741Y-108064582D01*
X137982101Y-108028762D01*
X137923372Y-108017133D01*
X137864905Y-108004706D01*
X137855747Y-108003744D01*
X137855744Y-108003743D01*
X137855741Y-108003743D01*
X137820000Y-108000239D01*
X137820000Y-104742581D01*
X137817277Y-104714929D01*
X137817281Y-104714291D01*
X137816381Y-104705120D01*
X137815261Y-104694460D01*
X137810450Y-104645617D01*
X137799244Y-104608678D01*
X137790555Y-104563123D01*
X137787892Y-104554302D01*
X137780563Y-104530625D01*
X137757384Y-104475484D01*
X137734970Y-104420007D01*
X137730643Y-104411871D01*
X137718854Y-104390068D01*
X137685413Y-104340490D01*
X137652654Y-104290428D01*
X137646830Y-104283287D01*
X137631031Y-104264189D01*
X137588602Y-104222055D01*
X137546735Y-104179300D01*
X137539634Y-104173426D01*
X137520426Y-104157760D01*
X137470609Y-104124661D01*
X137421229Y-104090851D01*
X137413123Y-104086468D01*
X137391238Y-104074833D01*
X137335960Y-104052050D01*
X137280963Y-104028478D01*
X137272159Y-104025753D01*
X137248431Y-104018589D01*
X137200360Y-104009070D01*
X137162383Y-103997550D01*
X137123683Y-103993738D01*
X137122080Y-103993570D01*
X137122075Y-103993569D01*
X137122070Y-103993569D01*
X137097412Y-103991151D01*
X137065419Y-103988000D01*
X133571581Y-103988000D01*
X133543929Y-103990723D01*
X133543291Y-103990719D01*
X133534120Y-103991619D01*
X133523460Y-103992739D01*
X133474617Y-103997550D01*
X133437678Y-104008756D01*
X133392123Y-104017445D01*
X133383302Y-104020108D01*
X133359625Y-104027437D01*
X133304484Y-104050616D01*
X133249007Y-104073030D01*
X133240871Y-104077357D01*
X133219068Y-104089146D01*
X133169490Y-104122587D01*
X133119428Y-104155346D01*
X133112287Y-104161170D01*
X133093189Y-104176969D01*
X133051055Y-104219398D01*
X133008300Y-104261265D01*
X133002426Y-104268366D01*
X132986760Y-104287574D01*
X132953661Y-104337391D01*
X132919851Y-104386771D01*
X132915468Y-104394877D01*
X132903833Y-104416762D01*
X132881050Y-104472040D01*
X132857478Y-104527037D01*
X132854753Y-104535841D01*
X132847589Y-104559569D01*
X132838070Y-104607643D01*
X132826550Y-104645618D01*
X132822740Y-104684302D01*
X132822570Y-104685920D01*
X132822569Y-104685925D01*
X132822569Y-104685930D01*
X132820186Y-104710234D01*
X132817000Y-104742582D01*
X132817001Y-107988500D01*
X132429775Y-107988500D01*
X132422987Y-107987835D01*
X132422500Y-107983199D01*
X132422500Y-100869081D01*
X132419742Y-100841081D01*
X132419769Y-100837245D01*
X132418869Y-100828074D01*
X132405914Y-100704823D01*
X132393887Y-100646233D01*
X132382678Y-100587471D01*
X132380014Y-100578649D01*
X132343367Y-100460262D01*
X132320192Y-100405132D01*
X132297778Y-100349653D01*
X132293451Y-100341517D01*
X132234507Y-100232502D01*
X132201065Y-100182922D01*
X132168303Y-100132855D01*
X132162478Y-100125714D01*
X132083482Y-100030224D01*
X132041066Y-99988103D01*
X131999184Y-99945334D01*
X131992084Y-99939461D01*
X131896045Y-99861133D01*
X131846203Y-99828018D01*
X131796862Y-99794233D01*
X131788756Y-99789850D01*
X131679332Y-99731668D01*
X131624054Y-99708884D01*
X131569045Y-99685307D01*
X131560241Y-99682582D01*
X131441601Y-99646762D01*
X131382872Y-99635133D01*
X131324405Y-99622706D01*
X131315247Y-99621744D01*
X131315244Y-99621743D01*
X131315241Y-99621743D01*
X131191902Y-99609650D01*
X131159919Y-99606500D01*
X114331081Y-99606500D01*
X114303081Y-99609258D01*
X114299245Y-99609231D01*
X114290074Y-99610131D01*
X114166823Y-99623086D01*
X114108233Y-99635113D01*
X114049471Y-99646322D01*
X114040649Y-99648986D01*
X113922262Y-99685633D01*
X113867132Y-99708808D01*
X113811653Y-99731222D01*
X113803517Y-99735549D01*
X113694502Y-99794493D01*
X113644922Y-99827935D01*
X113594855Y-99860697D01*
X113587714Y-99866522D01*
X113492224Y-99945518D01*
X113450103Y-99987934D01*
X113407334Y-100029816D01*
X113401461Y-100036916D01*
X113323133Y-100132955D01*
X113290018Y-100182797D01*
X113256233Y-100232138D01*
X113251850Y-100240244D01*
X113193668Y-100349668D01*
X113170884Y-100404946D01*
X113147307Y-100459955D01*
X113144582Y-100468759D01*
X113108762Y-100587399D01*
X113097141Y-100646092D01*
X113084706Y-100704595D01*
X113083744Y-100713753D01*
X113083744Y-100713754D01*
X113083743Y-100713759D01*
X113071650Y-100837098D01*
X113068500Y-100869082D01*
X113068501Y-107981215D01*
X113067835Y-107988013D01*
X113063199Y-107988500D01*
X112674000Y-107988500D01*
X112674000Y-104742581D01*
X112671277Y-104714929D01*
X112671281Y-104714291D01*
X112670381Y-104705120D01*
X112669261Y-104694460D01*
X112664450Y-104645617D01*
X112653244Y-104608678D01*
X112644555Y-104563123D01*
X112641892Y-104554302D01*
X112634563Y-104530625D01*
X112611384Y-104475484D01*
X112588970Y-104420007D01*
X112584643Y-104411871D01*
X112572854Y-104390068D01*
X112539413Y-104340490D01*
X112506654Y-104290428D01*
X112500830Y-104283287D01*
X112485031Y-104264189D01*
X112442602Y-104222055D01*
X112400735Y-104179300D01*
X112393634Y-104173426D01*
X112374426Y-104157760D01*
X112324609Y-104124661D01*
X112275229Y-104090851D01*
X112267123Y-104086468D01*
X112245238Y-104074833D01*
X112189960Y-104052050D01*
X112134963Y-104028478D01*
X112126159Y-104025753D01*
X112102431Y-104018589D01*
X112054360Y-104009070D01*
X112016383Y-103997550D01*
X111977683Y-103993738D01*
X111976080Y-103993570D01*
X111976075Y-103993569D01*
X111976070Y-103993569D01*
X111951412Y-103991151D01*
X111919419Y-103988000D01*
X108425581Y-103988000D01*
X108397929Y-103990723D01*
X108397291Y-103990719D01*
X108388120Y-103991619D01*
X108377460Y-103992739D01*
X108328617Y-103997550D01*
X108291678Y-104008756D01*
X108246123Y-104017445D01*
X108237302Y-104020108D01*
X108213625Y-104027437D01*
X108158484Y-104050616D01*
X108103007Y-104073030D01*
X108094871Y-104077357D01*
X108073068Y-104089146D01*
X108023490Y-104122587D01*
X107973428Y-104155346D01*
X107966287Y-104161170D01*
X107947189Y-104176969D01*
X107905055Y-104219398D01*
X107862300Y-104261265D01*
X107856426Y-104268366D01*
X107840760Y-104287574D01*
X107807661Y-104337391D01*
X107773851Y-104386771D01*
X107769468Y-104394877D01*
X107757833Y-104416762D01*
X107735050Y-104472040D01*
X107711478Y-104527037D01*
X107708753Y-104535841D01*
X107701589Y-104559569D01*
X107692070Y-104607643D01*
X107680550Y-104645618D01*
X107676740Y-104684302D01*
X107676570Y-104685920D01*
X107676569Y-104685925D01*
X107676569Y-104685930D01*
X107674186Y-104710234D01*
X107671000Y-104742582D01*
X107671001Y-108000390D01*
X107626323Y-108005086D01*
X107567733Y-108017113D01*
X107508971Y-108028322D01*
X107500149Y-108030986D01*
X107381762Y-108067633D01*
X107326632Y-108090808D01*
X107271153Y-108113222D01*
X107263017Y-108117549D01*
X107154002Y-108176493D01*
X107104422Y-108209935D01*
X107054355Y-108242697D01*
X107047214Y-108248522D01*
X106951724Y-108327518D01*
X106909603Y-108369934D01*
X106866834Y-108411816D01*
X106860961Y-108418916D01*
X106782633Y-108514955D01*
X106749518Y-108564797D01*
X106715733Y-108614138D01*
X106711350Y-108622244D01*
X106653168Y-108731668D01*
X106630390Y-108786932D01*
X106606807Y-108841955D01*
X106604082Y-108850759D01*
X106568262Y-108969399D01*
X106556641Y-109028092D01*
X106544206Y-109086595D01*
X106543244Y-109095753D01*
X106543244Y-109095754D01*
X106543243Y-109095759D01*
X106531150Y-109219098D01*
X106528000Y-109251082D01*
X106528001Y-111727716D01*
X106527335Y-111734513D01*
X106522699Y-111735000D01*
X102267279Y-111735000D01*
X101623779Y-111671904D01*
X101035836Y-111494394D01*
X100493564Y-111206063D01*
X100017636Y-110817906D01*
X99626155Y-110344686D01*
X99577451Y-110254609D01*
X100744997Y-110254609D01*
X100931073Y-110595766D01*
X101348409Y-110811513D01*
X101799815Y-110941696D01*
X102267946Y-110981313D01*
X102734811Y-110928842D01*
X103182468Y-110786297D01*
X103538927Y-110595766D01*
X103725003Y-110254609D01*
X102235000Y-108764605D01*
X100744997Y-110254609D01*
X99577451Y-110254609D01*
X99334050Y-109804449D01*
X99152437Y-109217756D01*
X99089395Y-108617946D01*
X99838687Y-108617946D01*
X99891158Y-109084811D01*
X100033703Y-109532468D01*
X100224234Y-109888927D01*
X100565391Y-110075003D01*
X102055395Y-108585000D01*
X102414605Y-108585000D01*
X103904609Y-110075003D01*
X104245766Y-109888927D01*
X104461513Y-109471591D01*
X104591696Y-109020185D01*
X104631313Y-108552054D01*
X104578842Y-108085189D01*
X104436297Y-107637532D01*
X104245766Y-107281073D01*
X103904609Y-107094997D01*
X102414605Y-108585000D01*
X102055395Y-108585000D01*
X100565391Y-107094997D01*
X100224234Y-107281073D01*
X100008487Y-107698409D01*
X99878304Y-108149815D01*
X99838687Y-108617946D01*
X99089395Y-108617946D01*
X99085000Y-108576130D01*
X99085000Y-106915391D01*
X100744997Y-106915391D01*
X102235000Y-108405395D01*
X103725003Y-106915391D01*
X103538927Y-106574234D01*
X103121591Y-106358487D01*
X102670185Y-106228304D01*
X102202054Y-106188687D01*
X101735189Y-106241158D01*
X101287532Y-106383703D01*
X100931073Y-106574234D01*
X100744997Y-106915391D01*
X99085000Y-106915391D01*
X99085000Y-102631720D01*
X99815706Y-102631720D01*
X99815706Y-103108280D01*
X99908678Y-103575682D01*
X100091049Y-104015965D01*
X100355812Y-104412210D01*
X100692790Y-104749188D01*
X101089035Y-105013951D01*
X101529318Y-105196322D01*
X101996720Y-105289294D01*
X102473280Y-105289294D01*
X102940682Y-105196322D01*
X103380965Y-105013951D01*
X103777210Y-104749188D01*
X104114188Y-104412210D01*
X104378951Y-104015965D01*
X104561322Y-103575682D01*
X104654294Y-103108280D01*
X104654294Y-102631720D01*
X104561322Y-102164318D01*
X104378951Y-101724035D01*
X104114188Y-101327790D01*
X103777210Y-100990812D01*
X103380965Y-100726049D01*
X102940682Y-100543678D01*
X102473280Y-100450706D01*
X101996720Y-100450706D01*
X101529318Y-100543678D01*
X101089035Y-100726049D01*
X100692790Y-100990812D01*
X100355812Y-101327790D01*
X100091049Y-101724035D01*
X99908678Y-102164318D01*
X99815706Y-102631720D01*
X99085000Y-102631720D01*
X99085000Y-93727116D01*
X174597423Y-93727116D01*
X174597423Y-94232884D01*
X174696094Y-94728934D01*
X174889643Y-95196204D01*
X175170633Y-95616735D01*
X175528265Y-95974367D01*
X175948796Y-96255357D01*
X176416066Y-96448906D01*
X176912116Y-96547577D01*
X177417884Y-96547577D01*
X177913934Y-96448906D01*
X178381204Y-96255357D01*
X178801735Y-95974367D01*
X179159367Y-95616735D01*
X179440357Y-95196204D01*
X179633906Y-94728934D01*
X179732577Y-94232884D01*
X179732577Y-93727116D01*
X179633906Y-93231066D01*
X179440357Y-92763796D01*
X179159367Y-92343265D01*
X178801735Y-91985633D01*
X178381204Y-91704643D01*
X177913934Y-91511094D01*
X177417884Y-91412423D01*
X176912116Y-91412423D01*
X176416066Y-91511094D01*
X175948796Y-91704643D01*
X175528265Y-91985633D01*
X175170633Y-92343265D01*
X174889643Y-92763796D01*
X174696094Y-93231066D01*
X174597423Y-93727116D01*
X99085000Y-93727116D01*
X99085000Y-83567116D01*
X174597423Y-83567116D01*
X174597423Y-84072884D01*
X174696094Y-84568934D01*
X174889643Y-85036204D01*
X175170633Y-85456735D01*
X175528265Y-85814367D01*
X175948796Y-86095357D01*
X176416066Y-86288906D01*
X176912116Y-86387577D01*
X177417884Y-86387577D01*
X177913934Y-86288906D01*
X178381204Y-86095357D01*
X178801735Y-85814367D01*
X179159367Y-85456735D01*
X179440357Y-85036204D01*
X179633906Y-84568934D01*
X179732577Y-84072884D01*
X179732577Y-83567116D01*
X179633906Y-83071066D01*
X179440357Y-82603796D01*
X179159367Y-82183265D01*
X178801735Y-81825633D01*
X178381204Y-81544643D01*
X177913934Y-81351094D01*
X177417884Y-81252423D01*
X176912116Y-81252423D01*
X176416066Y-81351094D01*
X175948796Y-81544643D01*
X175528265Y-81825633D01*
X175170633Y-82183265D01*
X174889643Y-82603796D01*
X174696094Y-83071066D01*
X174597423Y-83567116D01*
X99085000Y-83567116D01*
X99085000Y-77234609D01*
X100744997Y-77234609D01*
X100931073Y-77575766D01*
X101348409Y-77791513D01*
X101799815Y-77921696D01*
X102267946Y-77961313D01*
X102734811Y-77908842D01*
X103182468Y-77766297D01*
X103538927Y-77575766D01*
X103725003Y-77234609D01*
X102235000Y-75744605D01*
X100744997Y-77234609D01*
X99085000Y-77234609D01*
X99085000Y-75597946D01*
X99838687Y-75597946D01*
X99891158Y-76064811D01*
X100033703Y-76512468D01*
X100224234Y-76868927D01*
X100565391Y-77055003D01*
X102055395Y-75565000D01*
X102414605Y-75565000D01*
X103904609Y-77055003D01*
X104245766Y-76868927D01*
X104461513Y-76451591D01*
X104591696Y-76000185D01*
X104631313Y-75532054D01*
X104578842Y-75065189D01*
X104436297Y-74617532D01*
X104245766Y-74261073D01*
X103904609Y-74074997D01*
X102414605Y-75565000D01*
X102055395Y-75565000D01*
X100565391Y-74074997D01*
X100224234Y-74261073D01*
X100008487Y-74678409D01*
X99878304Y-75129815D01*
X99838687Y-75597946D01*
X99085000Y-75597946D01*
X99085000Y-75597279D01*
X99148096Y-74953778D01*
X99325606Y-74365836D01*
X99575745Y-73895391D01*
X100744997Y-73895391D01*
X102235000Y-75385395D01*
X103725003Y-73895391D01*
X103538927Y-73554234D01*
X103121591Y-73338487D01*
X102670185Y-73208304D01*
X102202054Y-73168687D01*
X101735189Y-73221158D01*
X101287532Y-73363703D01*
X100931073Y-73554234D01*
X100744997Y-73895391D01*
X99575745Y-73895391D01*
X99613937Y-73823564D01*
X100002094Y-73347636D01*
X100475314Y-72956155D01*
X101015552Y-72664049D01*
X101602244Y-72482437D01*
X102243879Y-72415000D01*
X128237725Y-72415000D01*
X128244513Y-72415666D01*
%TA.AperFunction,Conductor*%
D12*
G36*
X128244513Y-72415666D02*
G01*
X128245001Y-72420310D01*
X128245000Y-81312418D01*
X128247758Y-81340419D01*
X128247731Y-81344255D01*
X128248631Y-81353426D01*
X128261586Y-81476677D01*
X128273615Y-81535274D01*
X128284822Y-81594028D01*
X128287486Y-81602850D01*
X128324133Y-81721238D01*
X128347308Y-81776368D01*
X128369722Y-81831847D01*
X128374049Y-81839983D01*
X128432992Y-81948998D01*
X128466437Y-81998582D01*
X128499197Y-82048645D01*
X128505022Y-82055786D01*
X128584018Y-82151276D01*
X128626467Y-82193430D01*
X128668315Y-82236165D01*
X128675416Y-82242039D01*
X128771455Y-82320367D01*
X128821281Y-82353472D01*
X128870638Y-82387267D01*
X128878744Y-82391650D01*
X128988167Y-82449832D01*
X129043459Y-82472621D01*
X129098455Y-82496193D01*
X129107258Y-82498918D01*
X129225899Y-82534737D01*
X129284583Y-82546357D01*
X129343094Y-82558794D01*
X129352250Y-82559756D01*
X129352255Y-82559757D01*
X129352259Y-82559757D01*
X129475597Y-82571850D01*
X129475598Y-82571850D01*
X129507581Y-82575000D01*
X149892419Y-82575000D01*
X149920419Y-82572242D01*
X149924255Y-82572269D01*
X149933426Y-82571369D01*
X150056677Y-82558414D01*
X150115274Y-82546385D01*
X150174028Y-82535178D01*
X150182850Y-82532514D01*
X150301238Y-82495867D01*
X150356368Y-82472692D01*
X150411847Y-82450278D01*
X150419983Y-82445951D01*
X150528998Y-82387008D01*
X150578582Y-82353563D01*
X150628645Y-82320803D01*
X150635786Y-82314978D01*
X150731276Y-82235982D01*
X150773430Y-82193533D01*
X150816165Y-82151685D01*
X150822039Y-82144584D01*
X150900367Y-82048545D01*
X150933472Y-81998719D01*
X150967267Y-81949362D01*
X150971650Y-81941256D01*
X151029832Y-81831833D01*
X151052621Y-81776541D01*
X151076193Y-81721545D01*
X151078918Y-81712742D01*
X151114737Y-81594101D01*
X151126359Y-81535408D01*
X151138794Y-81476906D01*
X151139756Y-81467750D01*
X151139757Y-81467745D01*
X151139757Y-81467741D01*
X151151850Y-81344403D01*
X151151850Y-81344402D01*
X151155000Y-81312419D01*
X151155000Y-77234609D01*
X175674997Y-77234609D01*
X175861073Y-77575766D01*
X176278409Y-77791513D01*
X176729815Y-77921696D01*
X177197946Y-77961313D01*
X177664811Y-77908842D01*
X178112468Y-77766297D01*
X178468927Y-77575766D01*
X178655003Y-77234609D01*
X177165000Y-75744605D01*
X175674997Y-77234609D01*
X151155000Y-77234609D01*
X151155000Y-75597946D01*
X174768687Y-75597946D01*
X174821158Y-76064811D01*
X174963703Y-76512468D01*
X175154234Y-76868927D01*
X175495391Y-77055003D01*
X176985395Y-75565000D01*
X177344605Y-75565000D01*
X178834609Y-77055003D01*
X179175766Y-76868927D01*
X179391513Y-76451591D01*
X179521696Y-76000185D01*
X179561313Y-75532054D01*
X179508842Y-75065189D01*
X179366297Y-74617532D01*
X179175766Y-74261073D01*
X178834609Y-74074997D01*
X177344605Y-75565000D01*
X176985395Y-75565000D01*
X175495391Y-74074997D01*
X175154234Y-74261073D01*
X174938487Y-74678409D01*
X174808304Y-75129815D01*
X174768687Y-75597946D01*
X151155000Y-75597946D01*
X151155000Y-73895391D01*
X175674997Y-73895391D01*
X177165000Y-75385395D01*
X178655003Y-73895391D01*
X178468927Y-73554234D01*
X178051591Y-73338487D01*
X177600185Y-73208304D01*
X177132054Y-73168687D01*
X176665189Y-73221158D01*
X176217532Y-73363703D01*
X175861073Y-73554234D01*
X175674997Y-73895391D01*
X151155000Y-73895391D01*
X151155000Y-72422275D01*
X151155666Y-72415487D01*
X151160301Y-72415000D01*
X177132721Y-72415000D01*
X177776222Y-72478096D01*
X178364164Y-72655606D01*
X178906436Y-72943937D01*
X179382364Y-73332094D01*
X179773845Y-73805314D01*
X180065951Y-74345552D01*
X180247563Y-74932244D01*
X180315000Y-75573879D01*
X180315001Y-108552711D01*
X180251904Y-109196221D01*
X180074394Y-109784164D01*
X179786063Y-110326436D01*
X179397906Y-110802364D01*
X178924686Y-111193845D01*
X178384449Y-111485950D01*
X177797756Y-111667563D01*
X177156130Y-111735000D01*
X172879275Y-111735000D01*
X172872487Y-111734335D01*
X172872000Y-111729699D01*
X172872000Y-110254609D01*
X175674997Y-110254609D01*
X175861073Y-110595766D01*
X176278409Y-110811513D01*
X176729815Y-110941696D01*
X177197946Y-110981313D01*
X177664811Y-110928842D01*
X178112468Y-110786297D01*
X178468927Y-110595766D01*
X178655003Y-110254609D01*
X177165000Y-108764605D01*
X175674997Y-110254609D01*
X172872000Y-110254609D01*
X172872000Y-109251081D01*
X172869242Y-109223081D01*
X172869269Y-109219245D01*
X172868369Y-109210074D01*
X172855414Y-109086823D01*
X172843387Y-109028233D01*
X172832178Y-108969471D01*
X172829514Y-108960649D01*
X172792867Y-108842262D01*
X172769692Y-108787132D01*
X172747278Y-108731653D01*
X172742951Y-108723517D01*
X172685870Y-108617946D01*
X174768687Y-108617946D01*
X174821158Y-109084811D01*
X174963703Y-109532468D01*
X175154234Y-109888927D01*
X175495391Y-110075003D01*
X176985395Y-108585000D01*
X177344605Y-108585000D01*
X178834609Y-110075003D01*
X179175766Y-109888927D01*
X179391513Y-109471591D01*
X179521696Y-109020185D01*
X179561313Y-108552054D01*
X179508842Y-108085189D01*
X179366297Y-107637532D01*
X179175766Y-107281073D01*
X178834609Y-107094997D01*
X177344605Y-108585000D01*
X176985395Y-108585000D01*
X175495391Y-107094997D01*
X175154234Y-107281073D01*
X174938487Y-107698409D01*
X174808304Y-108149815D01*
X174768687Y-108617946D01*
X172685870Y-108617946D01*
X172684007Y-108614502D01*
X172650565Y-108564922D01*
X172617803Y-108514855D01*
X172611978Y-108507714D01*
X172532982Y-108412224D01*
X172490566Y-108370103D01*
X172448684Y-108327334D01*
X172441584Y-108321461D01*
X172345545Y-108243133D01*
X172295703Y-108210018D01*
X172246362Y-108176233D01*
X172238256Y-108171850D01*
X172128832Y-108113668D01*
X172073554Y-108090884D01*
X172018545Y-108067307D01*
X172009741Y-108064582D01*
X171891101Y-108028762D01*
X171832372Y-108017133D01*
X171773905Y-108004706D01*
X171764747Y-108003744D01*
X171764744Y-108003743D01*
X171764741Y-108003743D01*
X171729000Y-108000239D01*
X171729000Y-106915391D01*
X175674997Y-106915391D01*
X177165000Y-108405395D01*
X178655003Y-106915391D01*
X178468927Y-106574234D01*
X178051591Y-106358487D01*
X177600185Y-106228304D01*
X177132054Y-106188687D01*
X176665189Y-106241158D01*
X176217532Y-106383703D01*
X175861073Y-106574234D01*
X175674997Y-106915391D01*
X171729000Y-106915391D01*
X171729000Y-104742581D01*
X171726277Y-104714929D01*
X171726281Y-104714291D01*
X171725381Y-104705120D01*
X171724261Y-104694460D01*
X171719450Y-104645617D01*
X171708244Y-104608678D01*
X171699555Y-104563123D01*
X171696892Y-104554302D01*
X171689563Y-104530625D01*
X171666384Y-104475484D01*
X171643970Y-104420007D01*
X171639643Y-104411871D01*
X171627854Y-104390068D01*
X171594413Y-104340490D01*
X171561654Y-104290428D01*
X171555830Y-104283287D01*
X171540031Y-104264189D01*
X171497602Y-104222055D01*
X171455735Y-104179300D01*
X171448634Y-104173426D01*
X171429426Y-104157760D01*
X171379609Y-104124661D01*
X171330229Y-104090851D01*
X171322123Y-104086468D01*
X171300238Y-104074833D01*
X171244960Y-104052050D01*
X171189963Y-104028478D01*
X171181159Y-104025753D01*
X171157431Y-104018589D01*
X171109360Y-104009070D01*
X171071383Y-103997550D01*
X171032683Y-103993738D01*
X171031080Y-103993570D01*
X171031075Y-103993569D01*
X171031070Y-103993569D01*
X171006412Y-103991151D01*
X170974419Y-103988000D01*
X167480581Y-103988000D01*
X167452929Y-103990723D01*
X167452291Y-103990719D01*
X167443120Y-103991619D01*
X167432460Y-103992739D01*
X167383617Y-103997550D01*
X167346678Y-104008756D01*
X167301123Y-104017445D01*
X167292302Y-104020108D01*
X167268625Y-104027437D01*
X167213484Y-104050616D01*
X167158007Y-104073030D01*
X167149871Y-104077357D01*
X167128068Y-104089146D01*
X167078490Y-104122587D01*
X167028428Y-104155346D01*
X167021287Y-104161170D01*
X167002189Y-104176969D01*
X166960055Y-104219398D01*
X166917300Y-104261265D01*
X166911426Y-104268366D01*
X166895760Y-104287574D01*
X166862661Y-104337391D01*
X166828851Y-104386771D01*
X166824468Y-104394877D01*
X166812833Y-104416762D01*
X166790050Y-104472040D01*
X166766478Y-104527037D01*
X166763753Y-104535841D01*
X166756589Y-104559569D01*
X166747070Y-104607643D01*
X166735550Y-104645618D01*
X166731740Y-104684302D01*
X166731570Y-104685920D01*
X166731569Y-104685925D01*
X166731569Y-104685930D01*
X166729186Y-104710234D01*
X166726000Y-104742582D01*
X166726001Y-107988500D01*
X166338775Y-107988500D01*
X166331987Y-107987835D01*
X166331500Y-107983199D01*
X166331500Y-102631720D01*
X174745706Y-102631720D01*
X174745706Y-103108280D01*
X174838678Y-103575682D01*
X175021049Y-104015965D01*
X175285812Y-104412210D01*
X175622790Y-104749188D01*
X176019035Y-105013951D01*
X176459318Y-105196322D01*
X176926720Y-105289294D01*
X177403280Y-105289294D01*
X177870682Y-105196322D01*
X178310965Y-105013951D01*
X178707210Y-104749188D01*
X179044188Y-104412210D01*
X179308951Y-104015965D01*
X179491322Y-103575682D01*
X179584294Y-103108280D01*
X179584294Y-102631720D01*
X179491322Y-102164318D01*
X179308951Y-101724035D01*
X179044188Y-101327790D01*
X178707210Y-100990812D01*
X178310965Y-100726049D01*
X177870682Y-100543678D01*
X177403280Y-100450706D01*
X176926720Y-100450706D01*
X176459318Y-100543678D01*
X176019035Y-100726049D01*
X175622790Y-100990812D01*
X175285812Y-101327790D01*
X175021049Y-101724035D01*
X174838678Y-102164318D01*
X174745706Y-102631720D01*
X166331500Y-102631720D01*
X166331500Y-100869081D01*
X166328742Y-100841081D01*
X166328769Y-100837245D01*
X166327869Y-100828074D01*
X166314914Y-100704823D01*
X166302887Y-100646233D01*
X166291678Y-100587471D01*
X166289014Y-100578649D01*
X166252367Y-100460262D01*
X166229192Y-100405132D01*
X166206778Y-100349653D01*
X166202451Y-100341517D01*
X166143507Y-100232502D01*
X166110065Y-100182922D01*
X166077303Y-100132855D01*
X166071478Y-100125714D01*
X165992482Y-100030224D01*
X165950066Y-99988103D01*
X165908184Y-99945334D01*
X165901084Y-99939461D01*
X165805045Y-99861133D01*
X165755203Y-99828018D01*
X165705862Y-99794233D01*
X165697756Y-99789850D01*
X165588332Y-99731668D01*
X165533054Y-99708884D01*
X165478045Y-99685307D01*
X165469241Y-99682582D01*
X165350601Y-99646762D01*
X165291872Y-99635133D01*
X165233405Y-99622706D01*
X165224247Y-99621744D01*
X165224244Y-99621743D01*
X165224241Y-99621743D01*
X165100902Y-99609650D01*
X165068919Y-99606500D01*
X148240081Y-99606500D01*
X148212081Y-99609258D01*
X148208245Y-99609231D01*
X148199074Y-99610131D01*
X148075823Y-99623086D01*
X148017233Y-99635113D01*
X147958471Y-99646322D01*
X147949649Y-99648986D01*
X147831262Y-99685633D01*
X147776132Y-99708808D01*
X147720653Y-99731222D01*
X147712517Y-99735549D01*
X147603502Y-99794493D01*
X147553922Y-99827935D01*
X147503855Y-99860697D01*
X147496714Y-99866522D01*
X147401224Y-99945518D01*
X147359103Y-99987934D01*
X147316334Y-100029816D01*
X147310461Y-100036916D01*
X147232133Y-100132955D01*
X147199018Y-100182797D01*
X147165233Y-100232138D01*
X147160850Y-100240244D01*
X147102668Y-100349668D01*
X147079884Y-100404946D01*
X147056307Y-100459955D01*
X147053582Y-100468759D01*
X147017762Y-100587399D01*
X147006141Y-100646092D01*
X146993706Y-100704595D01*
X146992744Y-100713753D01*
X146992744Y-100713754D01*
X146992743Y-100713759D01*
X146980650Y-100837098D01*
X146977500Y-100869082D01*
X146977501Y-107981215D01*
X146976835Y-107988013D01*
X146972199Y-107988500D01*
X146583000Y-107988500D01*
X146583000Y-104742581D01*
X146580277Y-104714929D01*
X146580281Y-104714291D01*
X146579381Y-104705120D01*
X146578261Y-104694460D01*
X146573450Y-104645617D01*
X146562244Y-104608678D01*
X146553555Y-104563123D01*
X146550892Y-104554302D01*
X146543563Y-104530625D01*
X146520384Y-104475484D01*
X146497970Y-104420007D01*
X146493643Y-104411871D01*
X146481854Y-104390068D01*
X146448413Y-104340490D01*
X146415654Y-104290428D01*
X146409830Y-104283287D01*
X146394031Y-104264189D01*
X146351602Y-104222055D01*
X146309735Y-104179300D01*
X146302634Y-104173426D01*
X146283426Y-104157760D01*
X146233609Y-104124661D01*
X146184229Y-104090851D01*
X146176123Y-104086468D01*
X146154238Y-104074833D01*
X146098960Y-104052050D01*
X146043963Y-104028478D01*
X146035159Y-104025753D01*
X146011431Y-104018589D01*
X145963360Y-104009070D01*
X145925383Y-103997550D01*
X145886683Y-103993738D01*
X145885080Y-103993570D01*
X145885075Y-103993569D01*
X145885070Y-103993569D01*
X145860412Y-103991151D01*
X145828419Y-103988000D01*
X142334581Y-103988000D01*
X142306929Y-103990723D01*
X142306291Y-103990719D01*
X142297120Y-103991619D01*
X142286460Y-103992739D01*
X142237617Y-103997550D01*
X142200678Y-104008756D01*
X142155123Y-104017445D01*
X142146302Y-104020108D01*
X142122625Y-104027437D01*
X142067484Y-104050616D01*
X142012007Y-104073030D01*
X142003871Y-104077357D01*
X141982068Y-104089146D01*
X141932490Y-104122587D01*
X141882428Y-104155346D01*
X141875287Y-104161170D01*
X141856189Y-104176969D01*
X141814055Y-104219398D01*
X141771300Y-104261265D01*
X141765426Y-104268366D01*
X141749760Y-104287574D01*
X141716661Y-104337391D01*
X141682851Y-104386771D01*
X141678468Y-104394877D01*
X141666833Y-104416762D01*
X141644050Y-104472040D01*
X141620478Y-104527037D01*
X141617753Y-104535841D01*
X141610589Y-104559569D01*
X141601070Y-104607643D01*
X141589550Y-104645618D01*
X141585740Y-104684302D01*
X141585570Y-104685920D01*
X141585569Y-104685925D01*
X141585569Y-104685930D01*
X141583186Y-104710234D01*
X141580000Y-104742582D01*
X141580001Y-108000390D01*
X141535323Y-108005086D01*
X141476733Y-108017113D01*
X141417971Y-108028322D01*
X141409149Y-108030986D01*
X141290762Y-108067633D01*
X141235632Y-108090808D01*
X141180153Y-108113222D01*
X141172017Y-108117549D01*
X141063002Y-108176493D01*
X141013422Y-108209935D01*
X140963355Y-108242697D01*
X140956214Y-108248522D01*
X140860724Y-108327518D01*
X140818603Y-108369934D01*
X140775834Y-108411816D01*
X140769961Y-108418916D01*
X140691633Y-108514955D01*
X140658518Y-108564797D01*
X140624733Y-108614138D01*
X140620350Y-108622244D01*
X140562168Y-108731668D01*
X140539390Y-108786932D01*
X140515807Y-108841955D01*
X140513082Y-108850759D01*
X140477262Y-108969399D01*
X140465641Y-109028092D01*
X140453206Y-109086595D01*
X140452244Y-109095753D01*
X140452244Y-109095754D01*
X140452243Y-109095759D01*
X140440150Y-109219098D01*
X140437000Y-109251082D01*
X140437001Y-111727716D01*
X140436335Y-111734513D01*
X140431699Y-111735000D01*
X138970275Y-111735000D01*
X138963487Y-111734335D01*
X138963000Y-111729699D01*
X138963000Y-109251081D01*
X138960242Y-109223081D01*
X138960269Y-109219245D01*
X138959369Y-109210074D01*
X138946414Y-109086823D01*
X138934387Y-109028233D01*
X138923178Y-108969471D01*
X138920514Y-108960649D01*
X138883867Y-108842262D01*
X138860692Y-108787132D01*
X138838278Y-108731653D01*
X138833951Y-108723517D01*
X138775007Y-108614502D01*
X138741565Y-108564922D01*
X138708803Y-108514855D01*
X138702978Y-108507714D01*
X138623982Y-108412224D01*
X138581566Y-108370103D01*
X138539684Y-108327334D01*
X138532584Y-108321461D01*
X138436545Y-108243133D01*
X138386703Y-108210018D01*
X138337362Y-108176233D01*
X138329256Y-108171850D01*
X138219832Y-108113668D01*
X138164554Y-108090884D01*
X138109545Y-108067307D01*
X138100741Y-108064582D01*
X137982101Y-108028762D01*
X137923372Y-108017133D01*
X137864905Y-108004706D01*
X137855747Y-108003744D01*
X137855744Y-108003743D01*
X137855741Y-108003743D01*
X137820000Y-108000239D01*
X137820000Y-104742581D01*
X137817277Y-104714929D01*
X137817281Y-104714291D01*
X137816381Y-104705120D01*
X137815261Y-104694460D01*
X137810450Y-104645617D01*
X137799244Y-104608678D01*
X137790555Y-104563123D01*
X137787892Y-104554302D01*
X137780563Y-104530625D01*
X137757384Y-104475484D01*
X137734970Y-104420007D01*
X137730643Y-104411871D01*
X137718854Y-104390068D01*
X137685413Y-104340490D01*
X137652654Y-104290428D01*
X137646830Y-104283287D01*
X137631031Y-104264189D01*
X137588602Y-104222055D01*
X137546735Y-104179300D01*
X137539634Y-104173426D01*
X137520426Y-104157760D01*
X137470609Y-104124661D01*
X137421229Y-104090851D01*
X137413123Y-104086468D01*
X137391238Y-104074833D01*
X137335960Y-104052050D01*
X137280963Y-104028478D01*
X137272159Y-104025753D01*
X137248431Y-104018589D01*
X137200360Y-104009070D01*
X137162383Y-103997550D01*
X137123683Y-103993738D01*
X137122080Y-103993570D01*
X137122075Y-103993569D01*
X137122070Y-103993569D01*
X137097412Y-103991151D01*
X137065419Y-103988000D01*
X133571581Y-103988000D01*
X133543929Y-103990723D01*
X133543291Y-103990719D01*
X133534120Y-103991619D01*
X133523460Y-103992739D01*
X133474617Y-103997550D01*
X133437678Y-104008756D01*
X133392123Y-104017445D01*
X133383302Y-104020108D01*
X133359625Y-104027437D01*
X133304484Y-104050616D01*
X133249007Y-104073030D01*
X133240871Y-104077357D01*
X133219068Y-104089146D01*
X133169490Y-104122587D01*
X133119428Y-104155346D01*
X133112287Y-104161170D01*
X133093189Y-104176969D01*
X133051055Y-104219398D01*
X133008300Y-104261265D01*
X133002426Y-104268366D01*
X132986760Y-104287574D01*
X132953661Y-104337391D01*
X132919851Y-104386771D01*
X132915468Y-104394877D01*
X132903833Y-104416762D01*
X132881050Y-104472040D01*
X132857478Y-104527037D01*
X132854753Y-104535841D01*
X132847589Y-104559569D01*
X132838070Y-104607643D01*
X132826550Y-104645618D01*
X132822740Y-104684302D01*
X132822570Y-104685920D01*
X132822569Y-104685925D01*
X132822569Y-104685930D01*
X132820186Y-104710234D01*
X132817000Y-104742582D01*
X132817001Y-107988500D01*
X132429775Y-107988500D01*
X132422987Y-107987835D01*
X132422500Y-107983199D01*
X132422500Y-100869081D01*
X132419742Y-100841081D01*
X132419769Y-100837245D01*
X132418869Y-100828074D01*
X132405914Y-100704823D01*
X132393887Y-100646233D01*
X132382678Y-100587471D01*
X132380014Y-100578649D01*
X132343367Y-100460262D01*
X132320192Y-100405132D01*
X132297778Y-100349653D01*
X132293451Y-100341517D01*
X132234507Y-100232502D01*
X132201065Y-100182922D01*
X132168303Y-100132855D01*
X132162478Y-100125714D01*
X132083482Y-100030224D01*
X132041066Y-99988103D01*
X131999184Y-99945334D01*
X131992084Y-99939461D01*
X131896045Y-99861133D01*
X131846203Y-99828018D01*
X131796862Y-99794233D01*
X131788756Y-99789850D01*
X131679332Y-99731668D01*
X131624054Y-99708884D01*
X131569045Y-99685307D01*
X131560241Y-99682582D01*
X131441601Y-99646762D01*
X131382872Y-99635133D01*
X131324405Y-99622706D01*
X131315247Y-99621744D01*
X131315244Y-99621743D01*
X131315241Y-99621743D01*
X131191902Y-99609650D01*
X131159919Y-99606500D01*
X114331081Y-99606500D01*
X114303081Y-99609258D01*
X114299245Y-99609231D01*
X114290074Y-99610131D01*
X114166823Y-99623086D01*
X114108233Y-99635113D01*
X114049471Y-99646322D01*
X114040649Y-99648986D01*
X113922262Y-99685633D01*
X113867132Y-99708808D01*
X113811653Y-99731222D01*
X113803517Y-99735549D01*
X113694502Y-99794493D01*
X113644922Y-99827935D01*
X113594855Y-99860697D01*
X113587714Y-99866522D01*
X113492224Y-99945518D01*
X113450103Y-99987934D01*
X113407334Y-100029816D01*
X113401461Y-100036916D01*
X113323133Y-100132955D01*
X113290018Y-100182797D01*
X113256233Y-100232138D01*
X113251850Y-100240244D01*
X113193668Y-100349668D01*
X113170884Y-100404946D01*
X113147307Y-100459955D01*
X113144582Y-100468759D01*
X113108762Y-100587399D01*
X113097141Y-100646092D01*
X113084706Y-100704595D01*
X113083744Y-100713753D01*
X113083744Y-100713754D01*
X113083743Y-100713759D01*
X113071650Y-100837098D01*
X113068500Y-100869082D01*
X113068501Y-107981215D01*
X113067835Y-107988013D01*
X113063199Y-107988500D01*
X112674000Y-107988500D01*
X112674000Y-104742581D01*
X112671277Y-104714929D01*
X112671281Y-104714291D01*
X112670381Y-104705120D01*
X112669261Y-104694460D01*
X112664450Y-104645617D01*
X112653244Y-104608678D01*
X112644555Y-104563123D01*
X112641892Y-104554302D01*
X112634563Y-104530625D01*
X112611384Y-104475484D01*
X112588970Y-104420007D01*
X112584643Y-104411871D01*
X112572854Y-104390068D01*
X112539413Y-104340490D01*
X112506654Y-104290428D01*
X112500830Y-104283287D01*
X112485031Y-104264189D01*
X112442602Y-104222055D01*
X112400735Y-104179300D01*
X112393634Y-104173426D01*
X112374426Y-104157760D01*
X112324609Y-104124661D01*
X112275229Y-104090851D01*
X112267123Y-104086468D01*
X112245238Y-104074833D01*
X112189960Y-104052050D01*
X112134963Y-104028478D01*
X112126159Y-104025753D01*
X112102431Y-104018589D01*
X112054360Y-104009070D01*
X112016383Y-103997550D01*
X111977683Y-103993738D01*
X111976080Y-103993570D01*
X111976075Y-103993569D01*
X111976070Y-103993569D01*
X111951412Y-103991151D01*
X111919419Y-103988000D01*
X108425581Y-103988000D01*
X108397929Y-103990723D01*
X108397291Y-103990719D01*
X108388120Y-103991619D01*
X108377460Y-103992739D01*
X108328617Y-103997550D01*
X108291678Y-104008756D01*
X108246123Y-104017445D01*
X108237302Y-104020108D01*
X108213625Y-104027437D01*
X108158484Y-104050616D01*
X108103007Y-104073030D01*
X108094871Y-104077357D01*
X108073068Y-104089146D01*
X108023490Y-104122587D01*
X107973428Y-104155346D01*
X107966287Y-104161170D01*
X107947189Y-104176969D01*
X107905055Y-104219398D01*
X107862300Y-104261265D01*
X107856426Y-104268366D01*
X107840760Y-104287574D01*
X107807661Y-104337391D01*
X107773851Y-104386771D01*
X107769468Y-104394877D01*
X107757833Y-104416762D01*
X107735050Y-104472040D01*
X107711478Y-104527037D01*
X107708753Y-104535841D01*
X107701589Y-104559569D01*
X107692070Y-104607643D01*
X107680550Y-104645618D01*
X107676740Y-104684302D01*
X107676570Y-104685920D01*
X107676569Y-104685925D01*
X107676569Y-104685930D01*
X107674186Y-104710234D01*
X107671000Y-104742582D01*
X107671001Y-108000390D01*
X107626323Y-108005086D01*
X107567733Y-108017113D01*
X107508971Y-108028322D01*
X107500149Y-108030986D01*
X107381762Y-108067633D01*
X107326632Y-108090808D01*
X107271153Y-108113222D01*
X107263017Y-108117549D01*
X107154002Y-108176493D01*
X107104422Y-108209935D01*
X107054355Y-108242697D01*
X107047214Y-108248522D01*
X106951724Y-108327518D01*
X106909603Y-108369934D01*
X106866834Y-108411816D01*
X106860961Y-108418916D01*
X106782633Y-108514955D01*
X106749518Y-108564797D01*
X106715733Y-108614138D01*
X106711350Y-108622244D01*
X106653168Y-108731668D01*
X106630390Y-108786932D01*
X106606807Y-108841955D01*
X106604082Y-108850759D01*
X106568262Y-108969399D01*
X106556641Y-109028092D01*
X106544206Y-109086595D01*
X106543244Y-109095753D01*
X106543244Y-109095754D01*
X106543243Y-109095759D01*
X106531150Y-109219098D01*
X106528000Y-109251082D01*
X106528001Y-111727716D01*
X106527335Y-111734513D01*
X106522699Y-111735000D01*
X102267279Y-111735000D01*
X101623779Y-111671904D01*
X101035836Y-111494394D01*
X100493564Y-111206063D01*
X100017636Y-110817906D01*
X99626155Y-110344686D01*
X99577451Y-110254609D01*
X100744997Y-110254609D01*
X100931073Y-110595766D01*
X101348409Y-110811513D01*
X101799815Y-110941696D01*
X102267946Y-110981313D01*
X102734811Y-110928842D01*
X103182468Y-110786297D01*
X103538927Y-110595766D01*
X103725003Y-110254609D01*
X102235000Y-108764605D01*
X100744997Y-110254609D01*
X99577451Y-110254609D01*
X99334050Y-109804449D01*
X99152437Y-109217756D01*
X99089395Y-108617946D01*
X99838687Y-108617946D01*
X99891158Y-109084811D01*
X100033703Y-109532468D01*
X100224234Y-109888927D01*
X100565391Y-110075003D01*
X102055395Y-108585000D01*
X102414605Y-108585000D01*
X103904609Y-110075003D01*
X104245766Y-109888927D01*
X104461513Y-109471591D01*
X104591696Y-109020185D01*
X104631313Y-108552054D01*
X104578842Y-108085189D01*
X104436297Y-107637532D01*
X104245766Y-107281073D01*
X103904609Y-107094997D01*
X102414605Y-108585000D01*
X102055395Y-108585000D01*
X100565391Y-107094997D01*
X100224234Y-107281073D01*
X100008487Y-107698409D01*
X99878304Y-108149815D01*
X99838687Y-108617946D01*
X99089395Y-108617946D01*
X99085000Y-108576130D01*
X99085000Y-106915391D01*
X100744997Y-106915391D01*
X102235000Y-108405395D01*
X103725003Y-106915391D01*
X103538927Y-106574234D01*
X103121591Y-106358487D01*
X102670185Y-106228304D01*
X102202054Y-106188687D01*
X101735189Y-106241158D01*
X101287532Y-106383703D01*
X100931073Y-106574234D01*
X100744997Y-106915391D01*
X99085000Y-106915391D01*
X99085000Y-102631720D01*
X99815706Y-102631720D01*
X99815706Y-103108280D01*
X99908678Y-103575682D01*
X100091049Y-104015965D01*
X100355812Y-104412210D01*
X100692790Y-104749188D01*
X101089035Y-105013951D01*
X101529318Y-105196322D01*
X101996720Y-105289294D01*
X102473280Y-105289294D01*
X102940682Y-105196322D01*
X103380965Y-105013951D01*
X103777210Y-104749188D01*
X104114188Y-104412210D01*
X104378951Y-104015965D01*
X104561322Y-103575682D01*
X104654294Y-103108280D01*
X104654294Y-102631720D01*
X104561322Y-102164318D01*
X104378951Y-101724035D01*
X104114188Y-101327790D01*
X103777210Y-100990812D01*
X103380965Y-100726049D01*
X102940682Y-100543678D01*
X102473280Y-100450706D01*
X101996720Y-100450706D01*
X101529318Y-100543678D01*
X101089035Y-100726049D01*
X100692790Y-100990812D01*
X100355812Y-101327790D01*
X100091049Y-101724035D01*
X99908678Y-102164318D01*
X99815706Y-102631720D01*
X99085000Y-102631720D01*
X99085000Y-93727116D01*
X174597423Y-93727116D01*
X174597423Y-94232884D01*
X174696094Y-94728934D01*
X174889643Y-95196204D01*
X175170633Y-95616735D01*
X175528265Y-95974367D01*
X175948796Y-96255357D01*
X176416066Y-96448906D01*
X176912116Y-96547577D01*
X177417884Y-96547577D01*
X177913934Y-96448906D01*
X178381204Y-96255357D01*
X178801735Y-95974367D01*
X179159367Y-95616735D01*
X179440357Y-95196204D01*
X179633906Y-94728934D01*
X179732577Y-94232884D01*
X179732577Y-93727116D01*
X179633906Y-93231066D01*
X179440357Y-92763796D01*
X179159367Y-92343265D01*
X178801735Y-91985633D01*
X178381204Y-91704643D01*
X177913934Y-91511094D01*
X177417884Y-91412423D01*
X176912116Y-91412423D01*
X176416066Y-91511094D01*
X175948796Y-91704643D01*
X175528265Y-91985633D01*
X175170633Y-92343265D01*
X174889643Y-92763796D01*
X174696094Y-93231066D01*
X174597423Y-93727116D01*
X99085000Y-93727116D01*
X99085000Y-83567116D01*
X174597423Y-83567116D01*
X174597423Y-84072884D01*
X174696094Y-84568934D01*
X174889643Y-85036204D01*
X175170633Y-85456735D01*
X175528265Y-85814367D01*
X175948796Y-86095357D01*
X176416066Y-86288906D01*
X176912116Y-86387577D01*
X177417884Y-86387577D01*
X177913934Y-86288906D01*
X178381204Y-86095357D01*
X178801735Y-85814367D01*
X179159367Y-85456735D01*
X179440357Y-85036204D01*
X179633906Y-84568934D01*
X179732577Y-84072884D01*
X179732577Y-83567116D01*
X179633906Y-83071066D01*
X179440357Y-82603796D01*
X179159367Y-82183265D01*
X178801735Y-81825633D01*
X178381204Y-81544643D01*
X177913934Y-81351094D01*
X177417884Y-81252423D01*
X176912116Y-81252423D01*
X176416066Y-81351094D01*
X175948796Y-81544643D01*
X175528265Y-81825633D01*
X175170633Y-82183265D01*
X174889643Y-82603796D01*
X174696094Y-83071066D01*
X174597423Y-83567116D01*
X99085000Y-83567116D01*
X99085000Y-77234609D01*
X100744997Y-77234609D01*
X100931073Y-77575766D01*
X101348409Y-77791513D01*
X101799815Y-77921696D01*
X102267946Y-77961313D01*
X102734811Y-77908842D01*
X103182468Y-77766297D01*
X103538927Y-77575766D01*
X103725003Y-77234609D01*
X102235000Y-75744605D01*
X100744997Y-77234609D01*
X99085000Y-77234609D01*
X99085000Y-75597946D01*
X99838687Y-75597946D01*
X99891158Y-76064811D01*
X100033703Y-76512468D01*
X100224234Y-76868927D01*
X100565391Y-77055003D01*
X102055395Y-75565000D01*
X102414605Y-75565000D01*
X103904609Y-77055003D01*
X104245766Y-76868927D01*
X104461513Y-76451591D01*
X104591696Y-76000185D01*
X104631313Y-75532054D01*
X104578842Y-75065189D01*
X104436297Y-74617532D01*
X104245766Y-74261073D01*
X103904609Y-74074997D01*
X102414605Y-75565000D01*
X102055395Y-75565000D01*
X100565391Y-74074997D01*
X100224234Y-74261073D01*
X100008487Y-74678409D01*
X99878304Y-75129815D01*
X99838687Y-75597946D01*
X99085000Y-75597946D01*
X99085000Y-75597279D01*
X99148096Y-74953778D01*
X99325606Y-74365836D01*
X99575745Y-73895391D01*
X100744997Y-73895391D01*
X102235000Y-75385395D01*
X103725003Y-73895391D01*
X103538927Y-73554234D01*
X103121591Y-73338487D01*
X102670185Y-73208304D01*
X102202054Y-73168687D01*
X101735189Y-73221158D01*
X101287532Y-73363703D01*
X100931073Y-73554234D01*
X100744997Y-73895391D01*
X99575745Y-73895391D01*
X99613937Y-73823564D01*
X100002094Y-73347636D01*
X100475314Y-72956155D01*
X101015552Y-72664049D01*
X101602244Y-72482437D01*
X102243879Y-72415000D01*
X128237725Y-72415000D01*
X128244513Y-72415666D01*
G37*
%TD.AperFunction*%
%TD*%
M02*
