M48
INCH,TZ
T1C0.0157
T2C0.0315
T3C0.0354
T4C0.0394
T5C0.0400
T6C0.0433
T7C0.1200
T8C0.1260
%
G90
G05
T1
X41465Y-40500
X42000Y-39250
X44750Y-36215
X45215Y-42500
X46250Y-36500
X46250Y-42894
X47000Y-29500
X47000Y-29000
X47035Y-36500
X47500Y-43465
X48000Y-29000
X48000Y-29500
X51250Y-36750
X51327Y-38856
X51750Y-39250
X52000Y-35000
X52250Y-29750
X53250Y-33500
X53500Y-32000
X54250Y-36500
X54500Y-33000
X54500Y-39250
X59000Y-38000
X59750Y-32000
X60250Y-33535
X60750Y-43465
X62321Y-36215
T2
X42250Y-32750
X46250Y-32750
X43750Y-34250
X43750Y-37250
X44750Y-34250
X44750Y-37250
X45750Y-34250
X45750Y-37250
X46750Y-34250
X46750Y-37250
X48250Y-34750
X48250Y-36719
X39500Y-33750
X39500Y-37750
X42250Y-34750
X42250Y-36719
X58250Y-34750
X58250Y-36719
X48250Y-30250
X48250Y-33250
X40750Y-33750
X40750Y-37750
X42250Y-31500
X46250Y-31500
X49750Y-34250
X49750Y-37250
X50750Y-34250
X50750Y-37250
X51750Y-34250
X51750Y-37250
X52750Y-34250
X52750Y-37250
X53750Y-34250
X53750Y-37250
X54750Y-34250
X54750Y-37250
X55750Y-34250
X55750Y-37250
X56750Y-34250
X56750Y-37250
X59750Y-34250
X59750Y-37250
X60750Y-34250
X60750Y-37250
X61750Y-34250
X61750Y-37250
X62750Y-34250
X62750Y-37250
X63750Y-34250
X63750Y-37250
X64750Y-34250
X64750Y-37250
X65750Y-34250
X65750Y-37250
X66750Y-34250
X66750Y-37250
T3
X69750Y-40000
X69750Y-41000
X40250Y-40000
X40250Y-41000
T4
X59500Y-40250
X60045Y-41368
X60591Y-40250
X61136Y-41368
X61681Y-40250
X62226Y-41368
X62772Y-40250
X63317Y-41368
X63862Y-40250
X46142Y-40250
X46687Y-41368
X47232Y-40250
X47778Y-41368
X48323Y-40250
X48868Y-41368
X49413Y-40250
X49959Y-41368
X50504Y-40250
T5
X53000Y-29750
X53000Y-30750
X54000Y-29750
X54000Y-30750
X55000Y-29750
X55000Y-30750
X56000Y-29750
X56000Y-30750
X57000Y-29750
X57000Y-30750
T6
X68864Y-35720
X68864Y-38280
X70636Y-35720
X70636Y-38280
X68864Y-31720
X68864Y-34280
X70636Y-31720
X70636Y-34280
T7
X40250Y-42750
X40250Y-29750
X69750Y-29750
X69750Y-42750
T8
X56760Y-40809
X66602Y-40809
X43402Y-40809
X53244Y-40809
T0
M30
