%TF.GenerationSoftware,KiCad,Pcbnew,(5.1.8)-1*%
%TF.CreationDate,2021-03-09T01:49:27+01:00*%
%TF.ProjectId,Amiga Mouse Switch,416d6967-6120-44d6-9f75-736520537769,rev?*%
%TF.SameCoordinates,Original*%
%TF.FileFunction,Copper,L1,Top*%
%TF.FilePolarity,Positive*%
%FSLAX46Y46*%
G04 Gerber Fmt 4.6, Leading zero omitted, Abs format (unit mm)*
G04 Created by KiCad (PCBNEW (5.1.8)-1) date 2021-03-09 01:49:27*
%MOMM*%
%LPD*%
G01*
G04 APERTURE LIST*
%TA.AperFunction,SMDPad,CuDef*%
%ADD10R,1.500000X2.000000*%
%TD*%
%TA.AperFunction,ComponentPad*%
%ADD11C,1.600000*%
%TD*%
%TA.AperFunction,ComponentPad*%
%ADD12R,1.727200X1.727200*%
%TD*%
%TA.AperFunction,ComponentPad*%
%ADD13O,1.727200X1.727200*%
%TD*%
%TA.AperFunction,ComponentPad*%
%ADD14C,3.500000*%
%TD*%
%TA.AperFunction,ComponentPad*%
%ADD15C,1.800000*%
%TD*%
%TA.AperFunction,ComponentPad*%
%ADD16R,1.800000X1.800000*%
%TD*%
%TA.AperFunction,ComponentPad*%
%ADD17C,4.000000*%
%TD*%
%TA.AperFunction,ComponentPad*%
%ADD18R,1.600000X1.600000*%
%TD*%
%TA.AperFunction,ComponentPad*%
%ADD19O,1.600000X1.600000*%
%TD*%
%TA.AperFunction,ComponentPad*%
%ADD20O,1.600000X2.400000*%
%TD*%
%TA.AperFunction,ComponentPad*%
%ADD21R,1.600000X2.400000*%
%TD*%
%TA.AperFunction,ComponentPad*%
%ADD22C,2.000000*%
%TD*%
%TA.AperFunction,ViaPad*%
%ADD23C,0.800000*%
%TD*%
%TA.AperFunction,Conductor*%
%ADD24C,0.250000*%
%TD*%
%TA.AperFunction,Conductor*%
%ADD25C,0.381000*%
%TD*%
G04 APERTURE END LIST*
D10*
%TO.P,JP2,1*%
%TO.N,/LMB*%
X117475000Y-75565000D03*
%TO.P,JP2,2*%
%TO.N,Net-(JP2-Pad2)*%
X115570000Y-75565000D03*
%TD*%
D11*
%TO.P,C3,1*%
%TO.N,VCC*%
X107315000Y-88265000D03*
%TO.P,C3,2*%
%TO.N,GND*%
X107315000Y-93265000D03*
%TD*%
D12*
%TO.P,J3,1*%
%TO.N,Net-(J3-Pad1)*%
X134620000Y-78105000D03*
D13*
%TO.P,J3,2*%
%TO.N,Net-(J3-Pad2)*%
X137160000Y-78105000D03*
%TO.P,J3,3*%
%TO.N,Net-(J3-Pad3)*%
X139700000Y-78105000D03*
%TO.P,J3,4*%
%TO.N,Net-(J3-Pad4)*%
X142240000Y-78105000D03*
%TO.P,J3,5*%
%TO.N,N/C*%
X144780000Y-78105000D03*
%TO.P,J3,6*%
%TO.N,Net-(D3-Pad2)*%
X134620000Y-75565000D03*
%TO.P,J3,7*%
%TO.N,VCC*%
X137160000Y-75565000D03*
%TO.P,J3,8*%
%TO.N,GND*%
X139700000Y-75565000D03*
%TO.P,J3,9*%
%TO.N,Net-(J3-Pad9)*%
X142240000Y-75565000D03*
%TO.P,J3,10*%
%TO.N,N/C*%
X144780000Y-75565000D03*
%TD*%
D14*
%TO.P,M1,1*%
%TO.N,N/C*%
X102235000Y-108585000D03*
%TD*%
%TO.P,M2,1*%
%TO.N,N/C*%
X177165000Y-75565000D03*
%TD*%
%TO.P,M3,1*%
%TO.N,N/C*%
X102235000Y-75565000D03*
%TD*%
%TO.P,M4,1*%
%TO.N,N/C*%
X177165000Y-108585000D03*
%TD*%
D11*
%TO.P,C1,1*%
%TO.N,VCC*%
X147955000Y-88265000D03*
%TO.P,C1,2*%
%TO.N,GND*%
X147955000Y-93265000D03*
%TD*%
%TO.P,C2,2*%
%TO.N,GND*%
X122555000Y-93265000D03*
%TO.P,C2,1*%
%TO.N,VCC*%
X122555000Y-88265000D03*
%TD*%
D15*
%TO.P,D1,2*%
%TO.N,Net-(D1-Pad2)*%
X177165000Y-101600000D03*
D16*
%TO.P,D1,1*%
%TO.N,PORT*%
X177165000Y-104140000D03*
%TD*%
%TO.P,D2,1*%
%TO.N,Net-(D2-Pad1)*%
X102235000Y-104140000D03*
D15*
%TO.P,D2,2*%
%TO.N,PORT*%
X102235000Y-101600000D03*
%TD*%
D17*
%TO.P,J1,0*%
%TO.N,N/C*%
X135240000Y-103655000D03*
X110240000Y-103655000D03*
D11*
%TO.P,J1,9*%
%TO.N,/FIRE2*%
X126895000Y-105075000D03*
%TO.P,J1,8*%
%TO.N,GND*%
X124125000Y-105075000D03*
%TO.P,J1,7*%
%TO.N,VCC*%
X121355000Y-105075000D03*
%TO.P,J1,6*%
%TO.N,/FIRE1*%
X118585000Y-105075000D03*
%TO.P,J1,5*%
%TO.N,N/C*%
X128280000Y-102235000D03*
%TO.P,J1,4*%
%TO.N,/RIGHT*%
X125510000Y-102235000D03*
%TO.P,J1,3*%
%TO.N,/LEFT*%
X122740000Y-102235000D03*
%TO.P,J1,2*%
%TO.N,/DOWN*%
X119970000Y-102235000D03*
D18*
%TO.P,J1,1*%
%TO.N,/UP*%
X117200000Y-102235000D03*
%TD*%
%TO.P,J2,1*%
%TO.N,/V*%
X151130000Y-102235000D03*
D11*
%TO.P,J2,2*%
%TO.N,/H*%
X153900000Y-102235000D03*
%TO.P,J2,3*%
%TO.N,/VQ*%
X156670000Y-102235000D03*
%TO.P,J2,4*%
%TO.N,/HQ*%
X159440000Y-102235000D03*
%TO.P,J2,5*%
%TO.N,N/C*%
X162210000Y-102235000D03*
%TO.P,J2,6*%
%TO.N,/LMB*%
X152515000Y-105075000D03*
%TO.P,J2,7*%
%TO.N,VCC*%
X155285000Y-105075000D03*
%TO.P,J2,8*%
%TO.N,GND*%
X158055000Y-105075000D03*
%TO.P,J2,9*%
%TO.N,/RMB*%
X160825000Y-105075000D03*
D17*
%TO.P,J2,0*%
%TO.N,N/C*%
X144170000Y-103655000D03*
X169170000Y-103655000D03*
%TD*%
D10*
%TO.P,JP1,2*%
%TO.N,Net-(JP1-Pad2)*%
X107950000Y-75565000D03*
%TO.P,JP1,1*%
%TO.N,/FIRE1*%
X109855000Y-75565000D03*
%TD*%
D19*
%TO.P,R1,2*%
%TO.N,VCC*%
X107315000Y-83185000D03*
D11*
%TO.P,R1,1*%
%TO.N,Net-(JP2-Pad2)*%
X117475000Y-83185000D03*
%TD*%
%TO.P,R2,1*%
%TO.N,Net-(JP1-Pad2)*%
X117475000Y-80010000D03*
D19*
%TO.P,R2,2*%
%TO.N,VCC*%
X107315000Y-80010000D03*
%TD*%
%TO.P,R3,2*%
%TO.N,VCC*%
X103505000Y-85725000D03*
D11*
%TO.P,R3,1*%
%TO.N,Net-(D1-Pad2)*%
X103505000Y-95885000D03*
%TD*%
%TO.P,R4,1*%
%TO.N,GND*%
X100330000Y-85725000D03*
D19*
%TO.P,R4,2*%
%TO.N,Net-(D2-Pad1)*%
X100330000Y-95885000D03*
%TD*%
D20*
%TO.P,U1,16*%
%TO.N,VCC*%
X151765000Y-86995000D03*
%TO.P,U1,8*%
%TO.N,GND*%
X169545000Y-94615000D03*
%TO.P,U1,15*%
%TO.N,Net-(J3-Pad3)*%
X154305000Y-86995000D03*
%TO.P,U1,7*%
%TO.N,GND*%
X167005000Y-94615000D03*
%TO.P,U1,14*%
%TO.N,Net-(J3-Pad4)*%
X156845000Y-86995000D03*
%TO.P,U1,6*%
%TO.N,GND*%
X164465000Y-94615000D03*
%TO.P,U1,13*%
%TO.N,/RIGHT*%
X159385000Y-86995000D03*
%TO.P,U1,5*%
%TO.N,/H*%
X161925000Y-94615000D03*
%TO.P,U1,12*%
%TO.N,/HQ*%
X161925000Y-86995000D03*
%TO.P,U1,4*%
%TO.N,Net-(J3-Pad2)*%
X159385000Y-94615000D03*
%TO.P,U1,11*%
%TO.N,PORT*%
X164465000Y-86995000D03*
%TO.P,U1,3*%
%TO.N,/DOWN*%
X156845000Y-94615000D03*
%TO.P,U1,10*%
%TO.N,PORT*%
X167005000Y-86995000D03*
%TO.P,U1,2*%
%TO.N,/VQ*%
X154305000Y-94615000D03*
%TO.P,U1,9*%
%TO.N,PORT*%
X169545000Y-86995000D03*
D21*
%TO.P,U1,1*%
%TO.N,/LEFT*%
X151765000Y-94615000D03*
%TD*%
%TO.P,U2,1*%
%TO.N,/UP*%
X126365000Y-94615000D03*
D20*
%TO.P,U2,9*%
%TO.N,PORT*%
X144145000Y-86995000D03*
%TO.P,U2,2*%
%TO.N,/V*%
X128905000Y-94615000D03*
%TO.P,U2,10*%
%TO.N,PORT*%
X141605000Y-86995000D03*
%TO.P,U2,3*%
%TO.N,/FIRE2*%
X131445000Y-94615000D03*
%TO.P,U2,11*%
%TO.N,PORT*%
X139065000Y-86995000D03*
%TO.P,U2,4*%
%TO.N,Net-(J3-Pad9)*%
X133985000Y-94615000D03*
%TO.P,U2,12*%
%TO.N,/LMB*%
X136525000Y-86995000D03*
%TO.P,U2,5*%
%TO.N,/RMB*%
X136525000Y-94615000D03*
%TO.P,U2,13*%
%TO.N,/FIRE1*%
X133985000Y-86995000D03*
%TO.P,U2,6*%
%TO.N,GND*%
X139065000Y-94615000D03*
%TO.P,U2,14*%
%TO.N,Net-(D3-Pad1)*%
X131445000Y-86995000D03*
%TO.P,U2,7*%
%TO.N,GND*%
X141605000Y-94615000D03*
%TO.P,U2,15*%
%TO.N,Net-(J3-Pad1)*%
X128905000Y-86995000D03*
%TO.P,U2,8*%
%TO.N,GND*%
X144145000Y-94615000D03*
%TO.P,U2,16*%
%TO.N,VCC*%
X126365000Y-86995000D03*
%TD*%
D21*
%TO.P,U3,1*%
%TO.N,GND*%
X111125000Y-94615000D03*
D20*
%TO.P,U3,5*%
%TO.N,N/C*%
X118745000Y-86995000D03*
%TO.P,U3,2*%
%TO.N,Net-(JP1-Pad2)*%
X113665000Y-94615000D03*
%TO.P,U3,6*%
%TO.N,GND*%
X116205000Y-86995000D03*
%TO.P,U3,3*%
%TO.N,PORT*%
X116205000Y-94615000D03*
%TO.P,U3,7*%
%TO.N,N/C*%
X113665000Y-86995000D03*
%TO.P,U3,4*%
%TO.N,Net-(JP2-Pad2)*%
X118745000Y-94615000D03*
%TO.P,U3,8*%
%TO.N,VCC*%
X111125000Y-86995000D03*
%TD*%
D22*
%TO.P,SW1,2*%
%TO.N,Net-(JP1-Pad2)*%
X179415000Y-87070000D03*
%TO.P,SW1,1*%
%TO.N,GND*%
X174915000Y-87070000D03*
%TO.P,SW1,2*%
%TO.N,Net-(JP1-Pad2)*%
X179415000Y-80570000D03*
%TO.P,SW1,1*%
%TO.N,GND*%
X174915000Y-80570000D03*
%TD*%
%TO.P,SW2,1*%
%TO.N,GND*%
X174915000Y-90730000D03*
%TO.P,SW2,2*%
%TO.N,Net-(JP2-Pad2)*%
X179415000Y-90730000D03*
%TO.P,SW2,1*%
%TO.N,GND*%
X174915000Y-97230000D03*
%TO.P,SW2,2*%
%TO.N,Net-(JP2-Pad2)*%
X179415000Y-97230000D03*
%TD*%
D18*
%TO.P,D3,1*%
%TO.N,Net-(D3-Pad1)*%
X122555000Y-84455000D03*
D19*
%TO.P,D3,2*%
%TO.N,Net-(D3-Pad2)*%
X122555000Y-76835000D03*
%TD*%
D23*
%TO.N,/FIRE1*%
X119380000Y-73660000D03*
X121920000Y-73660000D03*
%TO.N,/DOWN*%
X149860000Y-96520000D03*
%TO.N,/FIRE2*%
X131445000Y-99695000D03*
%TO.N,VCC*%
X154305000Y-110399990D03*
X120650000Y-110399990D03*
X151765000Y-82550000D03*
%TO.N,PORT*%
X105320000Y-102870000D03*
X106680000Y-99695000D03*
X153035000Y-85180000D03*
X132080000Y-88900000D03*
X119470000Y-92710000D03*
X117475000Y-92710000D03*
%TO.N,/V*%
X130370153Y-98695001D03*
%TO.N,/LMB*%
X137795000Y-92710000D03*
X138430000Y-99695000D03*
X119379992Y-74930000D03*
X121920000Y-74930000D03*
X132715000Y-75565000D03*
X135890000Y-81280000D03*
%TO.N,/RMB*%
X137160000Y-99695000D03*
%TO.N,Net-(J3-Pad2)*%
X158295000Y-91985000D03*
%TO.N,Net-(J3-Pad9)*%
X135255000Y-85090000D03*
X138430000Y-83820000D03*
%TO.N,Net-(JP1-Pad2)*%
X113665000Y-91985000D03*
X117475000Y-108949989D03*
X114845000Y-107950000D03*
%TD*%
D24*
%TO.N,/FIRE1*%
X121285000Y-97155000D02*
X118585000Y-99855000D01*
X127000000Y-97155000D02*
X121285000Y-97155000D01*
X127635000Y-96520000D02*
X127000000Y-97155000D01*
X127635000Y-90805000D02*
X127635000Y-96520000D01*
X118585000Y-99855000D02*
X118585000Y-105075000D01*
X128270000Y-90170000D02*
X127635000Y-90805000D01*
X132080000Y-90170000D02*
X128270000Y-90170000D01*
X133985000Y-88265000D02*
X132080000Y-90170000D01*
X133985000Y-86995000D02*
X133985000Y-88265000D01*
X109855000Y-75565000D02*
X111760000Y-73660000D01*
X111760000Y-73660000D02*
X119380000Y-73660000D01*
X135255000Y-73660000D02*
X121920000Y-73660000D01*
X135890000Y-80010000D02*
X135890000Y-74295000D01*
X133985000Y-81915000D02*
X135890000Y-80010000D01*
X135890000Y-74295000D02*
X135255000Y-73660000D01*
X133985000Y-86995000D02*
X133985000Y-81915000D01*
%TO.N,/RIGHT*%
X125510000Y-99915000D02*
X125510000Y-102235000D01*
X126365000Y-99060000D02*
X125510000Y-99915000D01*
X128905000Y-99060000D02*
X126365000Y-99060000D01*
X129994999Y-97970001D02*
X128905000Y-99060000D01*
X151945001Y-97970001D02*
X129994999Y-97970001D01*
X153035000Y-96880002D02*
X151945001Y-97970001D01*
X153035000Y-93345000D02*
X153670000Y-92710000D01*
X153035000Y-93345000D02*
X153035000Y-96880002D01*
X153670000Y-92710000D02*
X158750000Y-92710000D01*
X158750000Y-92710000D02*
X159385000Y-92075000D01*
X159385000Y-92075000D02*
X159385000Y-86995000D01*
%TO.N,/LEFT*%
X122740000Y-99510000D02*
X122740000Y-102235000D01*
X123825000Y-98425000D02*
X122740000Y-99510000D01*
X128270000Y-98425000D02*
X123825000Y-98425000D01*
X129450000Y-97245000D02*
X128270000Y-98425000D01*
X151765000Y-96610000D02*
X151130000Y-97245000D01*
X151130000Y-97245000D02*
X129450000Y-97245000D01*
X151765000Y-94615000D02*
X151765000Y-96610000D01*
%TO.N,/DOWN*%
X127635000Y-97790000D02*
X128905000Y-96520000D01*
X121920000Y-97790000D02*
X127635000Y-97790000D01*
X119970000Y-99740000D02*
X121920000Y-97790000D01*
X119970000Y-102235000D02*
X119970000Y-99740000D01*
X128905000Y-96520000D02*
X149860000Y-96520000D01*
%TO.N,/FIRE2*%
X130510000Y-105075000D02*
X131445000Y-104140000D01*
X126895000Y-105075000D02*
X130510000Y-105075000D01*
X131445000Y-104140000D02*
X131445000Y-99695000D01*
%TO.N,/UP*%
X117200000Y-102235000D02*
X117200000Y-99970000D01*
X126365000Y-94615000D02*
X126365000Y-95885000D01*
X125730000Y-96520000D02*
X120650000Y-96520000D01*
X126365000Y-95885000D02*
X125730000Y-96520000D01*
X117200000Y-99970000D02*
X120650000Y-96520000D01*
D25*
%TO.N,VCC*%
X137160000Y-75565000D02*
X137160000Y-73025000D01*
X136525000Y-72390000D02*
X127000000Y-72390000D01*
X137160000Y-73025000D02*
X137160000Y-72390000D01*
X136525000Y-72390000D02*
X137160000Y-72390000D01*
X106045000Y-72390000D02*
X107315000Y-72390000D01*
X105410000Y-73025000D02*
X106045000Y-72390000D01*
X106045000Y-88265000D02*
X105410000Y-87630000D01*
X107315000Y-88265000D02*
X106045000Y-88265000D01*
X105410000Y-85725000D02*
X105410000Y-87630000D01*
X104775000Y-85725000D02*
X105410000Y-85090000D01*
X105410000Y-85725000D02*
X105410000Y-85090000D01*
X103505000Y-85725000D02*
X104775000Y-85725000D01*
X105410000Y-81280000D02*
X105410000Y-80645000D01*
X154214990Y-110490000D02*
X154305000Y-110399990D01*
X112395000Y-110490000D02*
X154214990Y-110490000D01*
X107315000Y-105410000D02*
X112395000Y-110490000D01*
X105410000Y-100330000D02*
X107315000Y-102235000D01*
X107315000Y-102235000D02*
X107315000Y-105410000D01*
X105410000Y-87630000D02*
X105410000Y-100330000D01*
X108585000Y-86995000D02*
X107315000Y-88265000D01*
X111125000Y-86995000D02*
X108585000Y-86995000D01*
X149225000Y-86995000D02*
X147955000Y-88265000D01*
X151765000Y-86995000D02*
X149225000Y-86995000D01*
X151130000Y-72390000D02*
X151765000Y-73025000D01*
X137160000Y-72390000D02*
X151130000Y-72390000D01*
X151765000Y-73025000D02*
X151765000Y-82550000D01*
X105410000Y-79375000D02*
X105410000Y-73025000D01*
X105410000Y-80645000D02*
X105410000Y-79375000D01*
X106045000Y-80010000D02*
X105410000Y-79375000D01*
X107315000Y-80010000D02*
X106045000Y-80010000D01*
X106045000Y-83185000D02*
X105410000Y-82550000D01*
X105410000Y-82550000D02*
X105410000Y-81280000D01*
X107315000Y-83185000D02*
X106045000Y-83185000D01*
X105410000Y-85090000D02*
X105410000Y-82550000D01*
X121285000Y-72390000D02*
X107315000Y-72390000D01*
X127000000Y-72390000D02*
X121285000Y-72390000D01*
X120650000Y-87630000D02*
X120650000Y-73025000D01*
X120650000Y-73025000D02*
X121285000Y-72390000D01*
X121285000Y-88265000D02*
X120650000Y-87630000D01*
X122555000Y-88265000D02*
X121285000Y-88265000D01*
X125095000Y-88265000D02*
X126365000Y-86995000D01*
X122555000Y-88265000D02*
X125095000Y-88265000D01*
D24*
%TO.N,Net-(D1-Pad2)*%
X174625000Y-101600000D02*
X177165000Y-101600000D01*
X173355000Y-102870000D02*
X174625000Y-101600000D01*
X171450000Y-111125000D02*
X173355000Y-109220000D01*
X111760000Y-111125000D02*
X171450000Y-111125000D01*
X106045000Y-105410000D02*
X111760000Y-111125000D01*
X106045000Y-102235000D02*
X106045000Y-105410000D01*
X103505000Y-99695000D02*
X106045000Y-102235000D01*
X173355000Y-109220000D02*
X173355000Y-102870000D01*
X103505000Y-95885000D02*
X103505000Y-99695000D01*
%TO.N,PORT*%
X104140000Y-101600000D02*
X105410000Y-102870000D01*
X102235000Y-101600000D02*
X104140000Y-101600000D01*
X105410000Y-102870000D02*
X105320000Y-102870000D01*
X173990000Y-109855000D02*
X173990000Y-104775000D01*
X172085000Y-111760000D02*
X173990000Y-109855000D01*
X111125000Y-111760000D02*
X172085000Y-111760000D01*
X105410000Y-106045000D02*
X111125000Y-111760000D01*
X105410000Y-102870000D02*
X105410000Y-106045000D01*
X173990000Y-104775000D02*
X174625000Y-104140000D01*
X174625000Y-104140000D02*
X177165000Y-104140000D01*
X116205000Y-92710000D02*
X116205000Y-94615000D01*
X117475000Y-92710000D02*
X116205000Y-92710000D01*
X109855000Y-92710000D02*
X116205000Y-92710000D01*
X109220000Y-93345000D02*
X109855000Y-92710000D01*
X109220000Y-97155000D02*
X109220000Y-93345000D01*
X106680000Y-99695000D02*
X109220000Y-97155000D01*
X150585000Y-85180000D02*
X153035000Y-85180000D01*
X144690000Y-85180000D02*
X150585000Y-85180000D01*
X144145000Y-85725000D02*
X144690000Y-85180000D01*
X144145000Y-86995000D02*
X144145000Y-85725000D01*
X120740000Y-91440000D02*
X119470000Y-92710000D01*
X125730000Y-91440000D02*
X120740000Y-91440000D01*
X131445000Y-89535000D02*
X127635000Y-89535000D01*
X127635000Y-89535000D02*
X125730000Y-91440000D01*
X132080000Y-88900000D02*
X131445000Y-89535000D01*
%TO.N,Net-(D2-Pad1)*%
X100330000Y-97155000D02*
X100330000Y-103505000D01*
X100965000Y-104140000D02*
X102235000Y-104140000D01*
X100330000Y-103505000D02*
X100965000Y-104140000D01*
X100330000Y-97155000D02*
X100330000Y-95885000D01*
%TO.N,/V*%
X151130000Y-99695000D02*
X151130000Y-102235000D01*
X150130001Y-98695001D02*
X151130000Y-99695000D01*
X130370153Y-98695001D02*
X150130001Y-98695001D01*
%TO.N,/H*%
X156210000Y-96520000D02*
X153900000Y-98830000D01*
X161290000Y-96520000D02*
X156210000Y-96520000D01*
X153900000Y-98830000D02*
X153900000Y-102235000D01*
X161925000Y-95885000D02*
X161290000Y-96520000D01*
X161925000Y-94615000D02*
X161925000Y-95885000D01*
%TO.N,/VQ*%
X154305000Y-97155000D02*
X154305000Y-94615000D01*
X152527000Y-98933000D02*
X154305000Y-97155000D01*
X152527000Y-102997000D02*
X152527000Y-98933000D01*
X153162000Y-103632000D02*
X152527000Y-102997000D01*
X155273000Y-103632000D02*
X153162000Y-103632000D01*
X156670000Y-102235000D02*
X155273000Y-103632000D01*
%TO.N,/HQ*%
X161925000Y-86995000D02*
X161925000Y-91440000D01*
X161925000Y-91440000D02*
X163195000Y-92710000D01*
X163195000Y-92710000D02*
X163195000Y-99695000D01*
X163195000Y-99695000D02*
X162560000Y-100330000D01*
X162560000Y-100330000D02*
X160020000Y-100330000D01*
X159440000Y-100910000D02*
X159440000Y-102235000D01*
X160020000Y-100330000D02*
X159440000Y-100910000D01*
%TO.N,/LMB*%
X136525000Y-91440000D02*
X137795000Y-92710000D01*
X136525000Y-86995000D02*
X136525000Y-91440000D01*
X138430000Y-99695000D02*
X148590000Y-99695000D01*
X148590000Y-99695000D02*
X149225000Y-100330000D01*
X149225000Y-100330000D02*
X149225000Y-104140000D01*
X150160000Y-105075000D02*
X152515000Y-105075000D01*
X149225000Y-104140000D02*
X150160000Y-105075000D01*
X117475000Y-75565000D02*
X118744992Y-75565000D01*
X118744992Y-75565000D02*
X119379992Y-74930000D01*
X121920000Y-74930000D02*
X132080000Y-74930000D01*
X132080000Y-74930000D02*
X132715000Y-75565000D01*
X136525000Y-81915000D02*
X135890000Y-81280000D01*
X136525000Y-86995000D02*
X136525000Y-81915000D01*
%TO.N,/RMB*%
X137795000Y-100330000D02*
X137160000Y-99695000D01*
X137991998Y-100330000D02*
X137795000Y-100330000D01*
X138081999Y-100420001D02*
X137991998Y-100330000D01*
X148045001Y-100420001D02*
X138081999Y-100420001D01*
X148590000Y-100965000D02*
X148045001Y-100420001D01*
X148590000Y-106045000D02*
X148590000Y-100965000D01*
X149860000Y-107315000D02*
X148590000Y-106045000D01*
X158585000Y-107315000D02*
X149860000Y-107315000D01*
X160825000Y-105075000D02*
X158585000Y-107315000D01*
%TO.N,Net-(J3-Pad1)*%
X134620000Y-79375000D02*
X134620000Y-78105000D01*
X128905000Y-85090000D02*
X134620000Y-79375000D01*
X128905000Y-86995000D02*
X128905000Y-85090000D01*
%TO.N,Net-(J3-Pad2)*%
X137160000Y-84455000D02*
X137160000Y-78105000D01*
X137795000Y-85090000D02*
X137160000Y-84455000D01*
X137795000Y-91440000D02*
X137795000Y-85090000D01*
X138430000Y-92075000D02*
X137795000Y-91440000D01*
X146685000Y-92075000D02*
X138430000Y-92075000D01*
X146775000Y-91985000D02*
X146685000Y-92075000D01*
X158295000Y-91985000D02*
X146775000Y-91985000D01*
%TO.N,Net-(J3-Pad3)*%
X153670000Y-84455000D02*
X154305000Y-85090000D01*
X154305000Y-86995000D02*
X154305000Y-85090000D01*
X140335000Y-84455000D02*
X153670000Y-84455000D01*
X139700000Y-83820000D02*
X140335000Y-84455000D01*
X139700000Y-78105000D02*
X139700000Y-83820000D01*
%TO.N,Net-(J3-Pad4)*%
X156845000Y-84455000D02*
X156845000Y-86995000D01*
X156210000Y-83820000D02*
X156845000Y-84455000D01*
X142875000Y-83820000D02*
X156210000Y-83820000D01*
X142240000Y-83185000D02*
X142875000Y-83820000D01*
X142240000Y-78105000D02*
X142240000Y-83185000D01*
%TO.N,Net-(J3-Pad9)*%
X135255000Y-88900000D02*
X135255000Y-85090000D01*
X133985000Y-90170000D02*
X135255000Y-88900000D01*
X133985000Y-94615000D02*
X133985000Y-90170000D01*
X138430000Y-77470000D02*
X138430000Y-83820000D01*
X140970000Y-76835000D02*
X139065000Y-76835000D01*
X142240000Y-75565000D02*
X140970000Y-76835000D01*
X139065000Y-76835000D02*
X138430000Y-77470000D01*
%TO.N,Net-(JP1-Pad2)*%
X179415000Y-87070000D02*
X179415000Y-80570000D01*
X113665000Y-99060000D02*
X114345013Y-99740013D01*
X113665000Y-94615000D02*
X113665000Y-99060000D01*
X173990000Y-99060000D02*
X172175000Y-100875000D01*
X177165000Y-98425000D02*
X176530000Y-99060000D01*
X179415000Y-87070000D02*
X177165000Y-89320000D01*
X177165000Y-89320000D02*
X177165000Y-98425000D01*
X176530000Y-99060000D02*
X173990000Y-99060000D01*
X114845000Y-100240000D02*
X114345013Y-99740013D01*
X114845000Y-107950000D02*
X114845000Y-100240000D01*
X171265011Y-108949989D02*
X172175000Y-108040000D01*
X117475000Y-108949989D02*
X171265011Y-108949989D01*
X172175000Y-100875000D02*
X172175000Y-108040000D01*
X113665000Y-92075000D02*
X113665000Y-91985000D01*
X113665000Y-90170000D02*
X113665000Y-92075000D01*
X112395000Y-88900000D02*
X113665000Y-90170000D01*
X117475000Y-80010000D02*
X112395000Y-80010000D01*
X107950000Y-75565000D02*
X107950000Y-76815000D01*
X112395000Y-81280000D02*
X112395000Y-88900000D01*
X112395000Y-80010000D02*
X112395000Y-81280000D01*
X112395000Y-80010000D02*
X111145000Y-80010000D01*
X111145000Y-80010000D02*
X110500000Y-79365000D01*
X107950000Y-76815000D02*
X110500000Y-79365000D01*
%TO.N,Net-(JP2-Pad2)*%
X179415000Y-97230000D02*
X179415000Y-90730000D01*
X115570000Y-108585000D02*
X115570000Y-100330000D01*
X116659989Y-109674989D02*
X115570000Y-108585000D01*
X171630011Y-109674989D02*
X116659989Y-109674989D01*
X115570000Y-100330000D02*
X118745000Y-97155000D01*
X172720000Y-108585000D02*
X171630011Y-109674989D01*
X172720000Y-101600000D02*
X172720000Y-108585000D01*
X174625000Y-99695000D02*
X172720000Y-101600000D01*
X118745000Y-97155000D02*
X118745000Y-94615000D01*
X176950000Y-99695000D02*
X174625000Y-99695000D01*
X179415000Y-97230000D02*
X176950000Y-99695000D01*
X118745000Y-94615000D02*
X118745000Y-90170000D01*
X117475000Y-88900000D02*
X118745000Y-90170000D01*
X117475000Y-83185000D02*
X117475000Y-88900000D01*
X118745000Y-83185000D02*
X117475000Y-83185000D01*
X119380000Y-82550000D02*
X118745000Y-83185000D01*
X119380000Y-78740000D02*
X119380000Y-82550000D01*
X118745000Y-78105000D02*
X119380000Y-78740000D01*
X116205000Y-78105000D02*
X118745000Y-78105000D01*
X115570000Y-77470000D02*
X116205000Y-78105000D01*
X115570000Y-75565000D02*
X115570000Y-77470000D01*
%TO.N,Net-(D3-Pad1)*%
X131445000Y-86995000D02*
X131445000Y-87630000D01*
X131445000Y-87630000D02*
X130175000Y-88900000D01*
X130175000Y-88900000D02*
X128270000Y-88900000D01*
X128270000Y-88900000D02*
X127635000Y-88265000D01*
X127635000Y-88265000D02*
X127635000Y-85090000D01*
X127000000Y-84455000D02*
X122555000Y-84455000D01*
X127635000Y-85090000D02*
X127000000Y-84455000D01*
%TO.N,Net-(D3-Pad2)*%
X122645001Y-76925001D02*
X122555000Y-76835000D01*
X133259999Y-76925001D02*
X122645001Y-76925001D01*
X134620000Y-75565000D02*
X133259999Y-76925001D01*
%TD*%
M02*
