%TF.GenerationSoftware,KiCad,Pcbnew,(5.1.8)-1*%
%TF.CreationDate,2021-02-13T02:57:26+01:00*%
%TF.ProjectId,Amiga Mouse Switch,416d6967-6120-44d6-9f75-736520537769,rev?*%
%TF.SameCoordinates,Original*%
%TF.FileFunction,Soldermask,Top*%
%TF.FilePolarity,Negative*%
%FSLAX46Y46*%
G04 Gerber Fmt 4.6, Leading zero omitted, Abs format (unit mm)*
G04 Created by KiCad (PCBNEW (5.1.8)-1) date 2021-02-13 02:57:26*
%MOMM*%
%LPD*%
G01*
G04 APERTURE LIST*
%ADD10R,1.500000X2.000000*%
%ADD11C,1.600000*%
%ADD12R,1.727200X1.727200*%
%ADD13O,1.727200X1.727200*%
%ADD14C,5.100000*%
%ADD15C,1.800000*%
%ADD16R,1.800000X1.800000*%
%ADD17C,4.000000*%
%ADD18R,1.600000X1.600000*%
%ADD19O,1.600000X1.600000*%
%ADD20O,1.600000X2.400000*%
%ADD21R,1.600000X2.400000*%
%ADD22C,2.000000*%
G04 APERTURE END LIST*
D10*
%TO.C,JP2*%
X120015000Y-75565000D03*
X118110000Y-75565000D03*
%TD*%
D11*
%TO.C,C3*%
X107315000Y-88265000D03*
X107315000Y-93265000D03*
%TD*%
D12*
%TO.C,J3*%
X134620000Y-78105000D03*
D13*
X137160000Y-78105000D03*
X139700000Y-78105000D03*
X142240000Y-78105000D03*
X144780000Y-78105000D03*
X134620000Y-75565000D03*
X137160000Y-75565000D03*
X139700000Y-75565000D03*
X142240000Y-75565000D03*
X144780000Y-75565000D03*
%TD*%
D14*
%TO.C,M1*%
X102235000Y-108585000D03*
%TD*%
%TO.C,M2*%
X177165000Y-75565000D03*
%TD*%
%TO.C,M3*%
X102235000Y-75565000D03*
%TD*%
%TO.C,M4*%
X177165000Y-108585000D03*
%TD*%
D11*
%TO.C,C1*%
X147955000Y-88265000D03*
X147955000Y-93265000D03*
%TD*%
%TO.C,C2*%
X122555000Y-93265000D03*
X122555000Y-88265000D03*
%TD*%
D15*
%TO.C,D1*%
X177165000Y-101600000D03*
D16*
X177165000Y-104140000D03*
%TD*%
%TO.C,D2*%
X102235000Y-104140000D03*
D15*
X102235000Y-101600000D03*
%TD*%
D17*
%TO.C,J1*%
X135240000Y-103655000D03*
X110240000Y-103655000D03*
D11*
X126895000Y-105075000D03*
X124125000Y-105075000D03*
X121355000Y-105075000D03*
X118585000Y-105075000D03*
X128280000Y-102235000D03*
X125510000Y-102235000D03*
X122740000Y-102235000D03*
X119970000Y-102235000D03*
D18*
X117200000Y-102235000D03*
%TD*%
%TO.C,J2*%
X151130000Y-102235000D03*
D11*
X153900000Y-102235000D03*
X156670000Y-102235000D03*
X159440000Y-102235000D03*
X162210000Y-102235000D03*
X152515000Y-105075000D03*
X155285000Y-105075000D03*
X158055000Y-105075000D03*
X160825000Y-105075000D03*
D17*
X144170000Y-103655000D03*
X169170000Y-103655000D03*
%TD*%
D10*
%TO.C,JP1*%
X109855000Y-75565000D03*
X111760000Y-75565000D03*
%TD*%
D19*
%TO.C,R1*%
X109855000Y-83185000D03*
D11*
X120015000Y-83185000D03*
%TD*%
%TO.C,R2*%
X120015000Y-80010000D03*
D19*
X109855000Y-80010000D03*
%TD*%
%TO.C,R3*%
X103505000Y-85725000D03*
D11*
X103505000Y-95885000D03*
%TD*%
%TO.C,R4*%
X100330000Y-85725000D03*
D19*
X100330000Y-95885000D03*
%TD*%
D20*
%TO.C,U1*%
X151765000Y-86995000D03*
X169545000Y-94615000D03*
X154305000Y-86995000D03*
X167005000Y-94615000D03*
X156845000Y-86995000D03*
X164465000Y-94615000D03*
X159385000Y-86995000D03*
X161925000Y-94615000D03*
X161925000Y-86995000D03*
X159385000Y-94615000D03*
X164465000Y-86995000D03*
X156845000Y-94615000D03*
X167005000Y-86995000D03*
X154305000Y-94615000D03*
X169545000Y-86995000D03*
D21*
X151765000Y-94615000D03*
%TD*%
%TO.C,U2*%
X126365000Y-94615000D03*
D20*
X144145000Y-86995000D03*
X128905000Y-94615000D03*
X141605000Y-86995000D03*
X131445000Y-94615000D03*
X139065000Y-86995000D03*
X133985000Y-94615000D03*
X136525000Y-86995000D03*
X136525000Y-94615000D03*
X133985000Y-86995000D03*
X139065000Y-94615000D03*
X131445000Y-86995000D03*
X141605000Y-94615000D03*
X128905000Y-86995000D03*
X144145000Y-94615000D03*
X126365000Y-86995000D03*
%TD*%
D21*
%TO.C,U3*%
X111125000Y-94615000D03*
D20*
X118745000Y-86995000D03*
X113665000Y-94615000D03*
X116205000Y-86995000D03*
X116205000Y-94615000D03*
X113665000Y-86995000D03*
X118745000Y-94615000D03*
X111125000Y-86995000D03*
%TD*%
D22*
%TO.C,SW1*%
X179415000Y-87070000D03*
X174915000Y-87070000D03*
X179415000Y-80570000D03*
X174915000Y-80570000D03*
%TD*%
%TO.C,SW2*%
X174915000Y-90730000D03*
X179415000Y-90730000D03*
X174915000Y-97230000D03*
X179415000Y-97230000D03*
%TD*%
M02*
