%TF.GenerationSoftware,KiCad,Pcbnew,(5.1.8)-1*%
%TF.CreationDate,2023-11-17T23:24:04+01:00*%
%TF.ProjectId,Amiga Mouse Switch,416d6967-6120-44d6-9f75-736520537769,rev?*%
%TF.SameCoordinates,Original*%
%TF.FileFunction,Legend,Top*%
%TF.FilePolarity,Positive*%
%FSLAX46Y46*%
G04 Gerber Fmt 4.6, Leading zero omitted, Abs format (unit mm)*
G04 Created by KiCad (PCBNEW (5.1.8)-1) date 2023-11-17 23:24:04*
%MOMM*%
%LPD*%
G01*
G04 APERTURE LIST*
%ADD10C,0.100000*%
%ADD11C,0.150000*%
%ADD12C,0.120000*%
G04 APERTURE END LIST*
D10*
X164179642Y-80587857D02*
X164446309Y-80587857D01*
X164560595Y-81006904D02*
X164179642Y-81006904D01*
X164179642Y-80206904D01*
X164560595Y-80206904D01*
X164903452Y-81006904D02*
X164903452Y-80206904D01*
X165360595Y-81006904D01*
X165360595Y-80206904D01*
X165551071Y-81083095D02*
X166160595Y-81083095D01*
X166312976Y-80968809D02*
X166427261Y-81006904D01*
X166617738Y-81006904D01*
X166693928Y-80968809D01*
X166732023Y-80930714D01*
X166770119Y-80854523D01*
X166770119Y-80778333D01*
X166732023Y-80702142D01*
X166693928Y-80664047D01*
X166617738Y-80625952D01*
X166465357Y-80587857D01*
X166389166Y-80549761D01*
X166351071Y-80511666D01*
X166312976Y-80435476D01*
X166312976Y-80359285D01*
X166351071Y-80283095D01*
X166389166Y-80245000D01*
X166465357Y-80206904D01*
X166655833Y-80206904D01*
X166770119Y-80245000D01*
X167570119Y-80930714D02*
X167532023Y-80968809D01*
X167417738Y-81006904D01*
X167341547Y-81006904D01*
X167227261Y-80968809D01*
X167151071Y-80892619D01*
X167112976Y-80816428D01*
X167074880Y-80664047D01*
X167074880Y-80549761D01*
X167112976Y-80397380D01*
X167151071Y-80321190D01*
X167227261Y-80245000D01*
X167341547Y-80206904D01*
X167417738Y-80206904D01*
X167532023Y-80245000D01*
X167570119Y-80283095D01*
X168370119Y-81006904D02*
X168103452Y-80625952D01*
X167912976Y-81006904D02*
X167912976Y-80206904D01*
X168217738Y-80206904D01*
X168293928Y-80245000D01*
X168332023Y-80283095D01*
X168370119Y-80359285D01*
X168370119Y-80473571D01*
X168332023Y-80549761D01*
X168293928Y-80587857D01*
X168217738Y-80625952D01*
X167912976Y-80625952D01*
X168865357Y-80206904D02*
X169017738Y-80206904D01*
X169093928Y-80245000D01*
X169170119Y-80321190D01*
X169208214Y-80473571D01*
X169208214Y-80740238D01*
X169170119Y-80892619D01*
X169093928Y-80968809D01*
X169017738Y-81006904D01*
X168865357Y-81006904D01*
X168789166Y-80968809D01*
X168712976Y-80892619D01*
X168674880Y-80740238D01*
X168674880Y-80473571D01*
X168712976Y-80321190D01*
X168789166Y-80245000D01*
X168865357Y-80206904D01*
X169932023Y-81006904D02*
X169551071Y-81006904D01*
X169551071Y-80206904D01*
X170579642Y-81006904D02*
X170198690Y-81006904D01*
X170198690Y-80206904D01*
X112846309Y-73158333D02*
X113227261Y-73158333D01*
X112770119Y-73386904D02*
X113036785Y-72586904D01*
X113303452Y-73386904D01*
X113570119Y-72586904D02*
X113570119Y-73234523D01*
X113608214Y-73310714D01*
X113646309Y-73348809D01*
X113722500Y-73386904D01*
X113874880Y-73386904D01*
X113951071Y-73348809D01*
X113989166Y-73310714D01*
X114027261Y-73234523D01*
X114027261Y-72586904D01*
X114293928Y-72586904D02*
X114751071Y-72586904D01*
X114522500Y-73386904D02*
X114522500Y-72586904D01*
X115170119Y-72586904D02*
X115322500Y-72586904D01*
X115398690Y-72625000D01*
X115474880Y-72701190D01*
X115512976Y-72853571D01*
X115512976Y-73120238D01*
X115474880Y-73272619D01*
X115398690Y-73348809D01*
X115322500Y-73386904D01*
X115170119Y-73386904D01*
X115093928Y-73348809D01*
X115017738Y-73272619D01*
X114979642Y-73120238D01*
X114979642Y-72853571D01*
X115017738Y-72701190D01*
X115093928Y-72625000D01*
X115170119Y-72586904D01*
X115665357Y-73463095D02*
X116274880Y-73463095D01*
X116465357Y-73386904D02*
X116465357Y-72586904D01*
X116732023Y-73158333D01*
X116998690Y-72586904D01*
X116998690Y-73386904D01*
X117532023Y-72586904D02*
X117684404Y-72586904D01*
X117760595Y-72625000D01*
X117836785Y-72701190D01*
X117874880Y-72853571D01*
X117874880Y-73120238D01*
X117836785Y-73272619D01*
X117760595Y-73348809D01*
X117684404Y-73386904D01*
X117532023Y-73386904D01*
X117455833Y-73348809D01*
X117379642Y-73272619D01*
X117341547Y-73120238D01*
X117341547Y-72853571D01*
X117379642Y-72701190D01*
X117455833Y-72625000D01*
X117532023Y-72586904D01*
X118217738Y-72586904D02*
X118217738Y-73234523D01*
X118255833Y-73310714D01*
X118293928Y-73348809D01*
X118370119Y-73386904D01*
X118522500Y-73386904D01*
X118598690Y-73348809D01*
X118636785Y-73310714D01*
X118674880Y-73234523D01*
X118674880Y-72586904D01*
X119017738Y-73348809D02*
X119132023Y-73386904D01*
X119322500Y-73386904D01*
X119398690Y-73348809D01*
X119436785Y-73310714D01*
X119474880Y-73234523D01*
X119474880Y-73158333D01*
X119436785Y-73082142D01*
X119398690Y-73044047D01*
X119322500Y-73005952D01*
X119170119Y-72967857D01*
X119093928Y-72929761D01*
X119055833Y-72891666D01*
X119017738Y-72815476D01*
X119017738Y-72739285D01*
X119055833Y-72663095D01*
X119093928Y-72625000D01*
X119170119Y-72586904D01*
X119360595Y-72586904D01*
X119474880Y-72625000D01*
X119817738Y-72967857D02*
X120084404Y-72967857D01*
X120198690Y-73386904D02*
X119817738Y-73386904D01*
X119817738Y-72586904D01*
X120198690Y-72586904D01*
X106197738Y-73158333D02*
X106578690Y-73158333D01*
X106121547Y-73386904D02*
X106388214Y-72586904D01*
X106654880Y-73386904D01*
X106921547Y-72586904D02*
X106921547Y-73234523D01*
X106959642Y-73310714D01*
X106997738Y-73348809D01*
X107073928Y-73386904D01*
X107226309Y-73386904D01*
X107302500Y-73348809D01*
X107340595Y-73310714D01*
X107378690Y-73234523D01*
X107378690Y-72586904D01*
X107645357Y-72586904D02*
X108102500Y-72586904D01*
X107873928Y-73386904D02*
X107873928Y-72586904D01*
X108521547Y-72586904D02*
X108673928Y-72586904D01*
X108750119Y-72625000D01*
X108826309Y-72701190D01*
X108864404Y-72853571D01*
X108864404Y-73120238D01*
X108826309Y-73272619D01*
X108750119Y-73348809D01*
X108673928Y-73386904D01*
X108521547Y-73386904D01*
X108445357Y-73348809D01*
X108369166Y-73272619D01*
X108331071Y-73120238D01*
X108331071Y-72853571D01*
X108369166Y-72701190D01*
X108445357Y-72625000D01*
X108521547Y-72586904D01*
X109016785Y-73463095D02*
X109626309Y-73463095D01*
X110045357Y-72586904D02*
X110045357Y-73158333D01*
X110007261Y-73272619D01*
X109931071Y-73348809D01*
X109816785Y-73386904D01*
X109740595Y-73386904D01*
X110578690Y-72586904D02*
X110731071Y-72586904D01*
X110807261Y-72625000D01*
X110883452Y-72701190D01*
X110921547Y-72853571D01*
X110921547Y-73120238D01*
X110883452Y-73272619D01*
X110807261Y-73348809D01*
X110731071Y-73386904D01*
X110578690Y-73386904D01*
X110502500Y-73348809D01*
X110426309Y-73272619D01*
X110388214Y-73120238D01*
X110388214Y-72853571D01*
X110426309Y-72701190D01*
X110502500Y-72625000D01*
X110578690Y-72586904D01*
X111416785Y-73005952D02*
X111416785Y-73386904D01*
X111150119Y-72586904D02*
X111416785Y-73005952D01*
X111683452Y-72586904D01*
X172281904Y-86143809D02*
X172853333Y-86143809D01*
X172967619Y-86181904D01*
X173043809Y-86258095D01*
X173081904Y-86372380D01*
X173081904Y-86448571D01*
X172281904Y-85610476D02*
X172281904Y-85458095D01*
X172320000Y-85381904D01*
X172396190Y-85305714D01*
X172548571Y-85267619D01*
X172815238Y-85267619D01*
X172967619Y-85305714D01*
X173043809Y-85381904D01*
X173081904Y-85458095D01*
X173081904Y-85610476D01*
X173043809Y-85686666D01*
X172967619Y-85762857D01*
X172815238Y-85800952D01*
X172548571Y-85800952D01*
X172396190Y-85762857D01*
X172320000Y-85686666D01*
X172281904Y-85610476D01*
X172700952Y-84772380D02*
X173081904Y-84772380D01*
X172281904Y-85039047D02*
X172700952Y-84772380D01*
X172281904Y-84505714D01*
X173043809Y-84277142D02*
X173081904Y-84162857D01*
X173081904Y-83972380D01*
X173043809Y-83896190D01*
X173005714Y-83858095D01*
X172929523Y-83820000D01*
X172853333Y-83820000D01*
X172777142Y-83858095D01*
X172739047Y-83896190D01*
X172700952Y-83972380D01*
X172662857Y-84124761D01*
X172624761Y-84200952D01*
X172586666Y-84239047D01*
X172510476Y-84277142D01*
X172434285Y-84277142D01*
X172358095Y-84239047D01*
X172320000Y-84200952D01*
X172281904Y-84124761D01*
X172281904Y-83934285D01*
X172320000Y-83820000D01*
X172281904Y-83591428D02*
X172281904Y-83134285D01*
X173081904Y-83362857D02*
X172281904Y-83362857D01*
X173081904Y-82867619D02*
X172281904Y-82867619D01*
X173005714Y-82029523D02*
X173043809Y-82067619D01*
X173081904Y-82181904D01*
X173081904Y-82258095D01*
X173043809Y-82372380D01*
X172967619Y-82448571D01*
X172891428Y-82486666D01*
X172739047Y-82524761D01*
X172624761Y-82524761D01*
X172472380Y-82486666D01*
X172396190Y-82448571D01*
X172320000Y-82372380D01*
X172281904Y-82258095D01*
X172281904Y-82181904D01*
X172320000Y-82067619D01*
X172358095Y-82029523D01*
X173081904Y-81686666D02*
X172281904Y-81686666D01*
X173081904Y-81229523D02*
X172624761Y-81572380D01*
X172281904Y-81229523D02*
X172739047Y-81686666D01*
X173081904Y-95827619D02*
X172281904Y-95827619D01*
X172853333Y-95560952D01*
X172281904Y-95294285D01*
X173081904Y-95294285D01*
X172281904Y-94760952D02*
X172281904Y-94608571D01*
X172320000Y-94532380D01*
X172396190Y-94456190D01*
X172548571Y-94418095D01*
X172815238Y-94418095D01*
X172967619Y-94456190D01*
X173043809Y-94532380D01*
X173081904Y-94608571D01*
X173081904Y-94760952D01*
X173043809Y-94837142D01*
X172967619Y-94913333D01*
X172815238Y-94951428D01*
X172548571Y-94951428D01*
X172396190Y-94913333D01*
X172320000Y-94837142D01*
X172281904Y-94760952D01*
X172281904Y-94075238D02*
X172929523Y-94075238D01*
X173005714Y-94037142D01*
X173043809Y-93999047D01*
X173081904Y-93922857D01*
X173081904Y-93770476D01*
X173043809Y-93694285D01*
X173005714Y-93656190D01*
X172929523Y-93618095D01*
X172281904Y-93618095D01*
X173043809Y-93275238D02*
X173081904Y-93160952D01*
X173081904Y-92970476D01*
X173043809Y-92894285D01*
X173005714Y-92856190D01*
X172929523Y-92818095D01*
X172853333Y-92818095D01*
X172777142Y-92856190D01*
X172739047Y-92894285D01*
X172700952Y-92970476D01*
X172662857Y-93122857D01*
X172624761Y-93199047D01*
X172586666Y-93237142D01*
X172510476Y-93275238D01*
X172434285Y-93275238D01*
X172358095Y-93237142D01*
X172320000Y-93199047D01*
X172281904Y-93122857D01*
X172281904Y-92932380D01*
X172320000Y-92818095D01*
X172662857Y-92475238D02*
X172662857Y-92208571D01*
X173081904Y-92094285D02*
X173081904Y-92475238D01*
X172281904Y-92475238D01*
X172281904Y-92094285D01*
X153274523Y-77122380D02*
X152941190Y-76646190D01*
X152703095Y-77122380D02*
X152703095Y-76122380D01*
X153084047Y-76122380D01*
X153179285Y-76170000D01*
X153226904Y-76217619D01*
X153274523Y-76312857D01*
X153274523Y-76455714D01*
X153226904Y-76550952D01*
X153179285Y-76598571D01*
X153084047Y-76646190D01*
X152703095Y-76646190D01*
X154084047Y-77074761D02*
X153988809Y-77122380D01*
X153798333Y-77122380D01*
X153703095Y-77074761D01*
X153655476Y-76979523D01*
X153655476Y-76598571D01*
X153703095Y-76503333D01*
X153798333Y-76455714D01*
X153988809Y-76455714D01*
X154084047Y-76503333D01*
X154131666Y-76598571D01*
X154131666Y-76693809D01*
X153655476Y-76789047D01*
X154465000Y-76455714D02*
X154703095Y-77122380D01*
X154941190Y-76455714D01*
X155322142Y-77122380D02*
X155322142Y-76455714D01*
X155322142Y-76122380D02*
X155274523Y-76170000D01*
X155322142Y-76217619D01*
X155369761Y-76170000D01*
X155322142Y-76122380D01*
X155322142Y-76217619D01*
X155750714Y-77074761D02*
X155845952Y-77122380D01*
X156036428Y-77122380D01*
X156131666Y-77074761D01*
X156179285Y-76979523D01*
X156179285Y-76931904D01*
X156131666Y-76836666D01*
X156036428Y-76789047D01*
X155893571Y-76789047D01*
X155798333Y-76741428D01*
X155750714Y-76646190D01*
X155750714Y-76598571D01*
X155798333Y-76503333D01*
X155893571Y-76455714D01*
X156036428Y-76455714D01*
X156131666Y-76503333D01*
X156607857Y-77122380D02*
X156607857Y-76455714D01*
X156607857Y-76122380D02*
X156560238Y-76170000D01*
X156607857Y-76217619D01*
X156655476Y-76170000D01*
X156607857Y-76122380D01*
X156607857Y-76217619D01*
X157226904Y-77122380D02*
X157131666Y-77074761D01*
X157084047Y-77027142D01*
X157036428Y-76931904D01*
X157036428Y-76646190D01*
X157084047Y-76550952D01*
X157131666Y-76503333D01*
X157226904Y-76455714D01*
X157369761Y-76455714D01*
X157465000Y-76503333D01*
X157512619Y-76550952D01*
X157560238Y-76646190D01*
X157560238Y-76931904D01*
X157512619Y-77027142D01*
X157465000Y-77074761D01*
X157369761Y-77122380D01*
X157226904Y-77122380D01*
X157988809Y-76455714D02*
X157988809Y-77122380D01*
X157988809Y-76550952D02*
X158036428Y-76503333D01*
X158131666Y-76455714D01*
X158274523Y-76455714D01*
X158369761Y-76503333D01*
X158417380Y-76598571D01*
X158417380Y-77122380D01*
X160226904Y-77027142D02*
X160179285Y-77074761D01*
X160036428Y-77122380D01*
X159941190Y-77122380D01*
X159798333Y-77074761D01*
X159703095Y-76979523D01*
X159655476Y-76884285D01*
X159607857Y-76693809D01*
X159607857Y-76550952D01*
X159655476Y-76360476D01*
X159703095Y-76265238D01*
X159798333Y-76170000D01*
X159941190Y-76122380D01*
X160036428Y-76122380D01*
X160179285Y-76170000D01*
X160226904Y-76217619D01*
X153131666Y-78055714D02*
X153131666Y-78865238D01*
X153084047Y-78960476D01*
X153036428Y-79008095D01*
X152941190Y-79055714D01*
X152798333Y-79055714D01*
X152703095Y-79008095D01*
X153131666Y-78674761D02*
X153036428Y-78722380D01*
X152845952Y-78722380D01*
X152750714Y-78674761D01*
X152703095Y-78627142D01*
X152655476Y-78531904D01*
X152655476Y-78246190D01*
X152703095Y-78150952D01*
X152750714Y-78103333D01*
X152845952Y-78055714D01*
X153036428Y-78055714D01*
X153131666Y-78103333D01*
X153607857Y-78722380D02*
X153607857Y-78055714D01*
X153607857Y-77722380D02*
X153560238Y-77770000D01*
X153607857Y-77817619D01*
X153655476Y-77770000D01*
X153607857Y-77722380D01*
X153607857Y-77817619D01*
X153941190Y-78055714D02*
X154322142Y-78055714D01*
X154084047Y-77722380D02*
X154084047Y-78579523D01*
X154131666Y-78674761D01*
X154226904Y-78722380D01*
X154322142Y-78722380D01*
X154655476Y-78722380D02*
X154655476Y-77722380D01*
X155084047Y-78722380D02*
X155084047Y-78198571D01*
X155036428Y-78103333D01*
X154941190Y-78055714D01*
X154798333Y-78055714D01*
X154703095Y-78103333D01*
X154655476Y-78150952D01*
X155988809Y-78055714D02*
X155988809Y-78722380D01*
X155560238Y-78055714D02*
X155560238Y-78579523D01*
X155607857Y-78674761D01*
X155703095Y-78722380D01*
X155845952Y-78722380D01*
X155941190Y-78674761D01*
X155988809Y-78627142D01*
X156465000Y-78722380D02*
X156465000Y-77722380D01*
X156465000Y-78103333D02*
X156560238Y-78055714D01*
X156750714Y-78055714D01*
X156845952Y-78103333D01*
X156893571Y-78150952D01*
X156941190Y-78246190D01*
X156941190Y-78531904D01*
X156893571Y-78627142D01*
X156845952Y-78674761D01*
X156750714Y-78722380D01*
X156560238Y-78722380D01*
X156465000Y-78674761D01*
X157369761Y-78627142D02*
X157417380Y-78674761D01*
X157369761Y-78722380D01*
X157322142Y-78674761D01*
X157369761Y-78627142D01*
X157369761Y-78722380D01*
X158274523Y-78674761D02*
X158179285Y-78722380D01*
X157988809Y-78722380D01*
X157893571Y-78674761D01*
X157845952Y-78627142D01*
X157798333Y-78531904D01*
X157798333Y-78246190D01*
X157845952Y-78150952D01*
X157893571Y-78103333D01*
X157988809Y-78055714D01*
X158179285Y-78055714D01*
X158274523Y-78103333D01*
X158845952Y-78722380D02*
X158750714Y-78674761D01*
X158703095Y-78627142D01*
X158655476Y-78531904D01*
X158655476Y-78246190D01*
X158703095Y-78150952D01*
X158750714Y-78103333D01*
X158845952Y-78055714D01*
X158988809Y-78055714D01*
X159084047Y-78103333D01*
X159131666Y-78150952D01*
X159179285Y-78246190D01*
X159179285Y-78531904D01*
X159131666Y-78627142D01*
X159084047Y-78674761D01*
X158988809Y-78722380D01*
X158845952Y-78722380D01*
X159607857Y-78722380D02*
X159607857Y-78055714D01*
X159607857Y-78150952D02*
X159655476Y-78103333D01*
X159750714Y-78055714D01*
X159893571Y-78055714D01*
X159988809Y-78103333D01*
X160036428Y-78198571D01*
X160036428Y-78722380D01*
X160036428Y-78198571D02*
X160084047Y-78103333D01*
X160179285Y-78055714D01*
X160322142Y-78055714D01*
X160417380Y-78103333D01*
X160465000Y-78198571D01*
X160465000Y-78722380D01*
X161655476Y-77674761D02*
X160798333Y-78960476D01*
X161845952Y-78055714D02*
X162226904Y-78055714D01*
X161988809Y-77722380D02*
X161988809Y-78579523D01*
X162036428Y-78674761D01*
X162131666Y-78722380D01*
X162226904Y-78722380D01*
X162941190Y-78674761D02*
X162845952Y-78722380D01*
X162655476Y-78722380D01*
X162560238Y-78674761D01*
X162512619Y-78579523D01*
X162512619Y-78198571D01*
X162560238Y-78103333D01*
X162655476Y-78055714D01*
X162845952Y-78055714D01*
X162941190Y-78103333D01*
X162988809Y-78198571D01*
X162988809Y-78293809D01*
X162512619Y-78389047D01*
X163417380Y-78722380D02*
X163417380Y-77722380D01*
X163417380Y-78103333D02*
X163512619Y-78055714D01*
X163703095Y-78055714D01*
X163798333Y-78103333D01*
X163845952Y-78150952D01*
X163893571Y-78246190D01*
X163893571Y-78531904D01*
X163845952Y-78627142D01*
X163798333Y-78674761D01*
X163703095Y-78722380D01*
X163512619Y-78722380D01*
X163417380Y-78674761D01*
X164465000Y-78722380D02*
X164369761Y-78674761D01*
X164322142Y-78579523D01*
X164322142Y-77722380D01*
D11*
X153307023Y-73192142D02*
X153259404Y-73239761D01*
X153116547Y-73287380D01*
X153021309Y-73287380D01*
X152878452Y-73239761D01*
X152783214Y-73144523D01*
X152735595Y-73049285D01*
X152687976Y-72858809D01*
X152687976Y-72715952D01*
X152735595Y-72525476D01*
X152783214Y-72430238D01*
X152878452Y-72335000D01*
X153021309Y-72287380D01*
X153116547Y-72287380D01*
X153259404Y-72335000D01*
X153307023Y-72382619D01*
X153878452Y-73287380D02*
X153783214Y-73239761D01*
X153735595Y-73192142D01*
X153687976Y-73096904D01*
X153687976Y-72811190D01*
X153735595Y-72715952D01*
X153783214Y-72668333D01*
X153878452Y-72620714D01*
X154021309Y-72620714D01*
X154116547Y-72668333D01*
X154164166Y-72715952D01*
X154211785Y-72811190D01*
X154211785Y-73096904D01*
X154164166Y-73192142D01*
X154116547Y-73239761D01*
X154021309Y-73287380D01*
X153878452Y-73287380D01*
X154640357Y-73287380D02*
X154640357Y-72620714D01*
X154640357Y-72715952D02*
X154687976Y-72668333D01*
X154783214Y-72620714D01*
X154926071Y-72620714D01*
X155021309Y-72668333D01*
X155068928Y-72763571D01*
X155068928Y-73287380D01*
X155068928Y-72763571D02*
X155116547Y-72668333D01*
X155211785Y-72620714D01*
X155354642Y-72620714D01*
X155449880Y-72668333D01*
X155497500Y-72763571D01*
X155497500Y-73287380D01*
X155973690Y-73287380D02*
X155973690Y-72620714D01*
X155973690Y-72715952D02*
X156021309Y-72668333D01*
X156116547Y-72620714D01*
X156259404Y-72620714D01*
X156354642Y-72668333D01*
X156402261Y-72763571D01*
X156402261Y-73287380D01*
X156402261Y-72763571D02*
X156449880Y-72668333D01*
X156545119Y-72620714D01*
X156687976Y-72620714D01*
X156783214Y-72668333D01*
X156830833Y-72763571D01*
X156830833Y-73287380D01*
X157449880Y-73287380D02*
X157354642Y-73239761D01*
X157307023Y-73192142D01*
X157259404Y-73096904D01*
X157259404Y-72811190D01*
X157307023Y-72715952D01*
X157354642Y-72668333D01*
X157449880Y-72620714D01*
X157592738Y-72620714D01*
X157687976Y-72668333D01*
X157735595Y-72715952D01*
X157783214Y-72811190D01*
X157783214Y-73096904D01*
X157735595Y-73192142D01*
X157687976Y-73239761D01*
X157592738Y-73287380D01*
X157449880Y-73287380D01*
X158640357Y-73287380D02*
X158640357Y-72287380D01*
X158640357Y-73239761D02*
X158545119Y-73287380D01*
X158354642Y-73287380D01*
X158259404Y-73239761D01*
X158211785Y-73192142D01*
X158164166Y-73096904D01*
X158164166Y-72811190D01*
X158211785Y-72715952D01*
X158259404Y-72668333D01*
X158354642Y-72620714D01*
X158545119Y-72620714D01*
X158640357Y-72668333D01*
X159259404Y-73287380D02*
X159164166Y-73239761D01*
X159116547Y-73192142D01*
X159068928Y-73096904D01*
X159068928Y-72811190D01*
X159116547Y-72715952D01*
X159164166Y-72668333D01*
X159259404Y-72620714D01*
X159402261Y-72620714D01*
X159497500Y-72668333D01*
X159545119Y-72715952D01*
X159592738Y-72811190D01*
X159592738Y-73096904D01*
X159545119Y-73192142D01*
X159497500Y-73239761D01*
X159402261Y-73287380D01*
X159259404Y-73287380D01*
X160021309Y-73287380D02*
X160021309Y-72620714D01*
X160021309Y-72811190D02*
X160068928Y-72715952D01*
X160116547Y-72668333D01*
X160211785Y-72620714D01*
X160307023Y-72620714D01*
X161021309Y-73239761D02*
X160926071Y-73287380D01*
X160735595Y-73287380D01*
X160640357Y-73239761D01*
X160592738Y-73144523D01*
X160592738Y-72763571D01*
X160640357Y-72668333D01*
X160735595Y-72620714D01*
X160926071Y-72620714D01*
X161021309Y-72668333D01*
X161068928Y-72763571D01*
X161068928Y-72858809D01*
X160592738Y-72954047D01*
X162211785Y-73001666D02*
X162687976Y-73001666D01*
X162116547Y-73287380D02*
X162449880Y-72287380D01*
X162783214Y-73287380D01*
X163116547Y-73287380D02*
X163116547Y-72620714D01*
X163116547Y-72715952D02*
X163164166Y-72668333D01*
X163259404Y-72620714D01*
X163402261Y-72620714D01*
X163497500Y-72668333D01*
X163545119Y-72763571D01*
X163545119Y-73287380D01*
X163545119Y-72763571D02*
X163592738Y-72668333D01*
X163687976Y-72620714D01*
X163830833Y-72620714D01*
X163926071Y-72668333D01*
X163973690Y-72763571D01*
X163973690Y-73287380D01*
X164449880Y-73287380D02*
X164449880Y-72620714D01*
X164449880Y-72287380D02*
X164402261Y-72335000D01*
X164449880Y-72382619D01*
X164497500Y-72335000D01*
X164449880Y-72287380D01*
X164449880Y-72382619D01*
X165354642Y-72620714D02*
X165354642Y-73430238D01*
X165307023Y-73525476D01*
X165259404Y-73573095D01*
X165164166Y-73620714D01*
X165021309Y-73620714D01*
X164926071Y-73573095D01*
X165354642Y-73239761D02*
X165259404Y-73287380D01*
X165068928Y-73287380D01*
X164973690Y-73239761D01*
X164926071Y-73192142D01*
X164878452Y-73096904D01*
X164878452Y-72811190D01*
X164926071Y-72715952D01*
X164973690Y-72668333D01*
X165068928Y-72620714D01*
X165259404Y-72620714D01*
X165354642Y-72668333D01*
X166259404Y-73287380D02*
X166259404Y-72763571D01*
X166211785Y-72668333D01*
X166116547Y-72620714D01*
X165926071Y-72620714D01*
X165830833Y-72668333D01*
X166259404Y-73239761D02*
X166164166Y-73287380D01*
X165926071Y-73287380D01*
X165830833Y-73239761D01*
X165783214Y-73144523D01*
X165783214Y-73049285D01*
X165830833Y-72954047D01*
X165926071Y-72906428D01*
X166164166Y-72906428D01*
X166259404Y-72858809D01*
X153021309Y-73937380D02*
X153021309Y-74651666D01*
X152973690Y-74794523D01*
X152878452Y-74889761D01*
X152735595Y-74937380D01*
X152640357Y-74937380D01*
X153640357Y-74937380D02*
X153545119Y-74889761D01*
X153497500Y-74842142D01*
X153449880Y-74746904D01*
X153449880Y-74461190D01*
X153497500Y-74365952D01*
X153545119Y-74318333D01*
X153640357Y-74270714D01*
X153783214Y-74270714D01*
X153878452Y-74318333D01*
X153926071Y-74365952D01*
X153973690Y-74461190D01*
X153973690Y-74746904D01*
X153926071Y-74842142D01*
X153878452Y-74889761D01*
X153783214Y-74937380D01*
X153640357Y-74937380D01*
X154307023Y-74270714D02*
X154545119Y-74937380D01*
X154783214Y-74270714D02*
X154545119Y-74937380D01*
X154449880Y-75175476D01*
X154402261Y-75223095D01*
X154307023Y-75270714D01*
X155116547Y-74889761D02*
X155211785Y-74937380D01*
X155402261Y-74937380D01*
X155497500Y-74889761D01*
X155545119Y-74794523D01*
X155545119Y-74746904D01*
X155497500Y-74651666D01*
X155402261Y-74604047D01*
X155259404Y-74604047D01*
X155164166Y-74556428D01*
X155116547Y-74461190D01*
X155116547Y-74413571D01*
X155164166Y-74318333D01*
X155259404Y-74270714D01*
X155402261Y-74270714D01*
X155497500Y-74318333D01*
X155830833Y-74270714D02*
X156211785Y-74270714D01*
X155973690Y-73937380D02*
X155973690Y-74794523D01*
X156021309Y-74889761D01*
X156116547Y-74937380D01*
X156211785Y-74937380D01*
X156545119Y-74937380D02*
X156545119Y-74270714D01*
X156545119Y-73937380D02*
X156497500Y-73985000D01*
X156545119Y-74032619D01*
X156592738Y-73985000D01*
X156545119Y-73937380D01*
X156545119Y-74032619D01*
X157449880Y-74889761D02*
X157354642Y-74937380D01*
X157164166Y-74937380D01*
X157068928Y-74889761D01*
X157021309Y-74842142D01*
X156973690Y-74746904D01*
X156973690Y-74461190D01*
X157021309Y-74365952D01*
X157068928Y-74318333D01*
X157164166Y-74270714D01*
X157354642Y-74270714D01*
X157449880Y-74318333D01*
X157878452Y-74937380D02*
X157878452Y-73937380D01*
X157973690Y-74556428D02*
X158259404Y-74937380D01*
X158259404Y-74270714D02*
X157878452Y-74651666D01*
X159402261Y-73889761D02*
X158545119Y-75175476D01*
X159735595Y-74937380D02*
X159735595Y-73937380D01*
X160068928Y-74651666D01*
X160402261Y-73937380D01*
X160402261Y-74937380D01*
X161021309Y-74937380D02*
X160926071Y-74889761D01*
X160878452Y-74842142D01*
X160830833Y-74746904D01*
X160830833Y-74461190D01*
X160878452Y-74365952D01*
X160926071Y-74318333D01*
X161021309Y-74270714D01*
X161164166Y-74270714D01*
X161259404Y-74318333D01*
X161307023Y-74365952D01*
X161354642Y-74461190D01*
X161354642Y-74746904D01*
X161307023Y-74842142D01*
X161259404Y-74889761D01*
X161164166Y-74937380D01*
X161021309Y-74937380D01*
X162211785Y-74270714D02*
X162211785Y-74937380D01*
X161783214Y-74270714D02*
X161783214Y-74794523D01*
X161830833Y-74889761D01*
X161926071Y-74937380D01*
X162068928Y-74937380D01*
X162164166Y-74889761D01*
X162211785Y-74842142D01*
X162640357Y-74889761D02*
X162735595Y-74937380D01*
X162926071Y-74937380D01*
X163021309Y-74889761D01*
X163068928Y-74794523D01*
X163068928Y-74746904D01*
X163021309Y-74651666D01*
X162926071Y-74604047D01*
X162783214Y-74604047D01*
X162687976Y-74556428D01*
X162640357Y-74461190D01*
X162640357Y-74413571D01*
X162687976Y-74318333D01*
X162783214Y-74270714D01*
X162926071Y-74270714D01*
X163021309Y-74318333D01*
X163878452Y-74889761D02*
X163783214Y-74937380D01*
X163592738Y-74937380D01*
X163497500Y-74889761D01*
X163449880Y-74794523D01*
X163449880Y-74413571D01*
X163497500Y-74318333D01*
X163592738Y-74270714D01*
X163783214Y-74270714D01*
X163878452Y-74318333D01*
X163926071Y-74413571D01*
X163926071Y-74508809D01*
X163449880Y-74604047D01*
X165068928Y-74889761D02*
X165211785Y-74937380D01*
X165449880Y-74937380D01*
X165545119Y-74889761D01*
X165592738Y-74842142D01*
X165640357Y-74746904D01*
X165640357Y-74651666D01*
X165592738Y-74556428D01*
X165545119Y-74508809D01*
X165449880Y-74461190D01*
X165259404Y-74413571D01*
X165164166Y-74365952D01*
X165116547Y-74318333D01*
X165068928Y-74223095D01*
X165068928Y-74127857D01*
X165116547Y-74032619D01*
X165164166Y-73985000D01*
X165259404Y-73937380D01*
X165497500Y-73937380D01*
X165640357Y-73985000D01*
X165973690Y-74270714D02*
X166164166Y-74937380D01*
X166354642Y-74461190D01*
X166545119Y-74937380D01*
X166735595Y-74270714D01*
X167116547Y-74937380D02*
X167116547Y-74270714D01*
X167116547Y-73937380D02*
X167068928Y-73985000D01*
X167116547Y-74032619D01*
X167164166Y-73985000D01*
X167116547Y-73937380D01*
X167116547Y-74032619D01*
X167449880Y-74270714D02*
X167830833Y-74270714D01*
X167592738Y-73937380D02*
X167592738Y-74794523D01*
X167640357Y-74889761D01*
X167735595Y-74937380D01*
X167830833Y-74937380D01*
X168592738Y-74889761D02*
X168497500Y-74937380D01*
X168307023Y-74937380D01*
X168211785Y-74889761D01*
X168164166Y-74842142D01*
X168116547Y-74746904D01*
X168116547Y-74461190D01*
X168164166Y-74365952D01*
X168211785Y-74318333D01*
X168307023Y-74270714D01*
X168497500Y-74270714D01*
X168592738Y-74318333D01*
X169021309Y-74937380D02*
X169021309Y-73937380D01*
X169449880Y-74937380D02*
X169449880Y-74413571D01*
X169402261Y-74318333D01*
X169307023Y-74270714D01*
X169164166Y-74270714D01*
X169068928Y-74318333D01*
X169021309Y-74365952D01*
D10*
X154806880Y-99485404D02*
X154806880Y-98685404D01*
X155073547Y-99256833D01*
X155340214Y-98685404D01*
X155340214Y-99485404D01*
X155873547Y-98685404D02*
X156025928Y-98685404D01*
X156102119Y-98723500D01*
X156178309Y-98799690D01*
X156216404Y-98952071D01*
X156216404Y-99218738D01*
X156178309Y-99371119D01*
X156102119Y-99447309D01*
X156025928Y-99485404D01*
X155873547Y-99485404D01*
X155797357Y-99447309D01*
X155721166Y-99371119D01*
X155683071Y-99218738D01*
X155683071Y-98952071D01*
X155721166Y-98799690D01*
X155797357Y-98723500D01*
X155873547Y-98685404D01*
X156559261Y-98685404D02*
X156559261Y-99333023D01*
X156597357Y-99409214D01*
X156635452Y-99447309D01*
X156711642Y-99485404D01*
X156864023Y-99485404D01*
X156940214Y-99447309D01*
X156978309Y-99409214D01*
X157016404Y-99333023D01*
X157016404Y-98685404D01*
X157359261Y-99447309D02*
X157473547Y-99485404D01*
X157664023Y-99485404D01*
X157740214Y-99447309D01*
X157778309Y-99409214D01*
X157816404Y-99333023D01*
X157816404Y-99256833D01*
X157778309Y-99180642D01*
X157740214Y-99142547D01*
X157664023Y-99104452D01*
X157511642Y-99066357D01*
X157435452Y-99028261D01*
X157397357Y-98990166D01*
X157359261Y-98913976D01*
X157359261Y-98837785D01*
X157397357Y-98761595D01*
X157435452Y-98723500D01*
X157511642Y-98685404D01*
X157702119Y-98685404D01*
X157816404Y-98723500D01*
X158159261Y-99066357D02*
X158425928Y-99066357D01*
X158540214Y-99485404D02*
X158159261Y-99485404D01*
X158159261Y-98685404D01*
X158540214Y-98685404D01*
X120421690Y-98685404D02*
X120421690Y-99256833D01*
X120383595Y-99371119D01*
X120307404Y-99447309D01*
X120193119Y-99485404D01*
X120116928Y-99485404D01*
X120955023Y-98685404D02*
X121107404Y-98685404D01*
X121183595Y-98723500D01*
X121259785Y-98799690D01*
X121297880Y-98952071D01*
X121297880Y-99218738D01*
X121259785Y-99371119D01*
X121183595Y-99447309D01*
X121107404Y-99485404D01*
X120955023Y-99485404D01*
X120878833Y-99447309D01*
X120802642Y-99371119D01*
X120764547Y-99218738D01*
X120764547Y-98952071D01*
X120802642Y-98799690D01*
X120878833Y-98723500D01*
X120955023Y-98685404D01*
X121793119Y-99104452D02*
X121793119Y-99485404D01*
X121526452Y-98685404D02*
X121793119Y-99104452D01*
X122059785Y-98685404D01*
X122288357Y-99447309D02*
X122402642Y-99485404D01*
X122593119Y-99485404D01*
X122669309Y-99447309D01*
X122707404Y-99409214D01*
X122745500Y-99333023D01*
X122745500Y-99256833D01*
X122707404Y-99180642D01*
X122669309Y-99142547D01*
X122593119Y-99104452D01*
X122440738Y-99066357D01*
X122364547Y-99028261D01*
X122326452Y-98990166D01*
X122288357Y-98913976D01*
X122288357Y-98837785D01*
X122326452Y-98761595D01*
X122364547Y-98723500D01*
X122440738Y-98685404D01*
X122631214Y-98685404D01*
X122745500Y-98723500D01*
X122974071Y-98685404D02*
X123431214Y-98685404D01*
X123202642Y-99485404D02*
X123202642Y-98685404D01*
X123697880Y-99485404D02*
X123697880Y-98685404D01*
X124535976Y-99409214D02*
X124497880Y-99447309D01*
X124383595Y-99485404D01*
X124307404Y-99485404D01*
X124193119Y-99447309D01*
X124116928Y-99371119D01*
X124078833Y-99294928D01*
X124040738Y-99142547D01*
X124040738Y-99028261D01*
X124078833Y-98875880D01*
X124116928Y-98799690D01*
X124193119Y-98723500D01*
X124307404Y-98685404D01*
X124383595Y-98685404D01*
X124497880Y-98723500D01*
X124535976Y-98761595D01*
X124878833Y-99485404D02*
X124878833Y-98685404D01*
X125335976Y-99485404D02*
X124993119Y-99028261D01*
X125335976Y-98685404D02*
X124878833Y-99142547D01*
D11*
%TO.C,JP2*%
X118237000Y-74295000D02*
X118237000Y-74041000D01*
X114300000Y-77089000D02*
X118745000Y-77089000D01*
X118237000Y-74041000D02*
X114681000Y-74041000D01*
X114300000Y-74041000D02*
X114300000Y-77089000D01*
X114681000Y-74295000D02*
X114681000Y-74041000D01*
X118745000Y-77089000D02*
X118745000Y-74041000D01*
D12*
%TO.C,C3*%
X106260000Y-93235000D02*
X105945000Y-93235000D01*
X108685000Y-93235000D02*
X108370000Y-93235000D01*
X106260000Y-88295000D02*
X105945000Y-88295000D01*
X108685000Y-88295000D02*
X108370000Y-88295000D01*
X105945000Y-88295000D02*
X105945000Y-93235000D01*
X108685000Y-88295000D02*
X108685000Y-93235000D01*
%TO.C,J3*%
X134933500Y-79990438D02*
X134433500Y-79990438D01*
X134433500Y-79990438D02*
X134683500Y-79557425D01*
X134683500Y-79557425D02*
X134933500Y-79990438D01*
X129020000Y-81760000D02*
X129020000Y-79220000D01*
X129020000Y-81760000D02*
X131560000Y-81760000D01*
X129270000Y-81510000D02*
X129270000Y-72160000D01*
X150130000Y-81510000D02*
X129270000Y-81510000D01*
X150130000Y-72160000D02*
X150130000Y-81510000D01*
X129270000Y-72160000D02*
X150130000Y-72160000D01*
D10*
X149880000Y-81260000D02*
X149320000Y-80710000D01*
X129520000Y-81260000D02*
X130060000Y-80710000D01*
X149880000Y-72410000D02*
X149320000Y-72960000D01*
X129520000Y-72410000D02*
X130060000Y-72960000D01*
X149320000Y-72960000D02*
X149320000Y-80710000D01*
X149880000Y-72410000D02*
X149880000Y-81260000D01*
X130060000Y-72960000D02*
X130060000Y-80710000D01*
X129520000Y-72410000D02*
X129520000Y-81260000D01*
X141950000Y-80710000D02*
X141950000Y-81260000D01*
X137450000Y-80710000D02*
X137450000Y-81260000D01*
X141950000Y-80710000D02*
X149320000Y-80710000D01*
X130060000Y-80710000D02*
X137450000Y-80710000D01*
X129520000Y-81260000D02*
X149880000Y-81260000D01*
X130060000Y-72960000D02*
X149320000Y-72960000D01*
X129520000Y-72410000D02*
X149880000Y-72410000D01*
D12*
%TO.C,C1*%
X146900000Y-93235000D02*
X146585000Y-93235000D01*
X149325000Y-93235000D02*
X149010000Y-93235000D01*
X146900000Y-88295000D02*
X146585000Y-88295000D01*
X149325000Y-88295000D02*
X149010000Y-88295000D01*
X146585000Y-88295000D02*
X146585000Y-93235000D01*
X149325000Y-88295000D02*
X149325000Y-93235000D01*
%TO.C,C2*%
X123925000Y-88295000D02*
X123925000Y-93235000D01*
X121185000Y-88295000D02*
X121185000Y-93235000D01*
X123925000Y-88295000D02*
X123610000Y-88295000D01*
X121500000Y-88295000D02*
X121185000Y-88295000D01*
X123925000Y-93235000D02*
X123610000Y-93235000D01*
X121500000Y-93235000D02*
X121185000Y-93235000D01*
%TO.C,D1*%
X179665000Y-102870000D02*
G75*
G03*
X179665000Y-102870000I-2500000J0D01*
G01*
X175620000Y-105430000D02*
X178710000Y-105430000D01*
X177164538Y-99880000D02*
G75*
G02*
X178709830Y-105430000I462J-2990000D01*
G01*
X177165462Y-99880000D02*
G75*
G03*
X175620170Y-105430000I-462J-2990000D01*
G01*
%TO.C,D2*%
X100690000Y-105430000D02*
X103780000Y-105430000D01*
X104735000Y-102870000D02*
G75*
G03*
X104735000Y-102870000I-2500000J0D01*
G01*
X102235462Y-99880000D02*
G75*
G03*
X100690170Y-105430000I-462J-2990000D01*
G01*
X102234538Y-99880000D02*
G75*
G02*
X103779830Y-105430000I462J-2990000D01*
G01*
%TO.C,J1*%
X107255000Y-112715000D02*
X107255000Y-100375000D01*
X107255000Y-100375000D02*
X138225000Y-100375000D01*
X138225000Y-100375000D02*
X138225000Y-112715000D01*
%TO.C,J2*%
X172155000Y-100375000D02*
X172155000Y-112715000D01*
X141185000Y-100375000D02*
X172155000Y-100375000D01*
X141185000Y-112715000D02*
X141185000Y-100375000D01*
D11*
%TO.C,JP1*%
X111125000Y-77089000D02*
X111125000Y-74041000D01*
X107061000Y-74295000D02*
X107061000Y-74041000D01*
X106680000Y-74041000D02*
X106680000Y-77089000D01*
X110617000Y-74041000D02*
X107061000Y-74041000D01*
X106680000Y-77089000D02*
X111125000Y-77089000D01*
X110617000Y-74295000D02*
X110617000Y-74041000D01*
D12*
%TO.C,R1*%
X115665000Y-84555000D02*
X115665000Y-81815000D01*
X115665000Y-81815000D02*
X109125000Y-81815000D01*
X109125000Y-81815000D02*
X109125000Y-84555000D01*
X109125000Y-84555000D02*
X115665000Y-84555000D01*
X116435000Y-83185000D02*
X115665000Y-83185000D01*
X108355000Y-83185000D02*
X109125000Y-83185000D01*
%TO.C,R2*%
X108355000Y-80010000D02*
X109125000Y-80010000D01*
X116435000Y-80010000D02*
X115665000Y-80010000D01*
X109125000Y-81380000D02*
X115665000Y-81380000D01*
X109125000Y-78640000D02*
X109125000Y-81380000D01*
X115665000Y-78640000D02*
X109125000Y-78640000D01*
X115665000Y-81380000D02*
X115665000Y-78640000D01*
%TO.C,R3*%
X102135000Y-94075000D02*
X104875000Y-94075000D01*
X104875000Y-94075000D02*
X104875000Y-87535000D01*
X104875000Y-87535000D02*
X102135000Y-87535000D01*
X102135000Y-87535000D02*
X102135000Y-94075000D01*
X103505000Y-94845000D02*
X103505000Y-94075000D01*
X103505000Y-86765000D02*
X103505000Y-87535000D01*
%TO.C,R4*%
X100330000Y-94845000D02*
X100330000Y-94075000D01*
X100330000Y-86765000D02*
X100330000Y-87535000D01*
X101700000Y-94075000D02*
X101700000Y-87535000D01*
X98960000Y-94075000D02*
X101700000Y-94075000D01*
X98960000Y-87535000D02*
X98960000Y-94075000D01*
X101700000Y-87535000D02*
X98960000Y-87535000D01*
%TO.C,U1*%
X150435000Y-91805000D02*
X150435000Y-93055000D01*
X150435000Y-93055000D02*
X170875000Y-93055000D01*
X170875000Y-93055000D02*
X170875000Y-88555000D01*
X170875000Y-88555000D02*
X150435000Y-88555000D01*
X150435000Y-88555000D02*
X150435000Y-89805000D01*
X150375000Y-96055000D02*
X170935000Y-96055000D01*
X170935000Y-96055000D02*
X170935000Y-85555000D01*
X170935000Y-85555000D02*
X150375000Y-85555000D01*
X150375000Y-85555000D02*
X150375000Y-96055000D01*
X150435000Y-89805000D02*
G75*
G02*
X150435000Y-91805000I0J-1000000D01*
G01*
%TO.C,U2*%
X124975000Y-85555000D02*
X124975000Y-96055000D01*
X145535000Y-85555000D02*
X124975000Y-85555000D01*
X145535000Y-96055000D02*
X145535000Y-85555000D01*
X124975000Y-96055000D02*
X145535000Y-96055000D01*
X125035000Y-88555000D02*
X125035000Y-89805000D01*
X145475000Y-88555000D02*
X125035000Y-88555000D01*
X145475000Y-93055000D02*
X145475000Y-88555000D01*
X125035000Y-93055000D02*
X145475000Y-93055000D01*
X125035000Y-91805000D02*
X125035000Y-93055000D01*
X125035000Y-89805000D02*
G75*
G02*
X125035000Y-91805000I0J-1000000D01*
G01*
%TO.C,U3*%
X109735000Y-85555000D02*
X109735000Y-96055000D01*
X120135000Y-85555000D02*
X109735000Y-85555000D01*
X120135000Y-96055000D02*
X120135000Y-85555000D01*
X109735000Y-96055000D02*
X120135000Y-96055000D01*
X109795000Y-88555000D02*
X109795000Y-89805000D01*
X120075000Y-88555000D02*
X109795000Y-88555000D01*
X120075000Y-93055000D02*
X120075000Y-88555000D01*
X109795000Y-93055000D02*
X120075000Y-93055000D01*
X109795000Y-91805000D02*
X109795000Y-93055000D01*
X109795000Y-89805000D02*
G75*
G02*
X109795000Y-91805000I0J-1000000D01*
G01*
%TO.C,SW1*%
X180415000Y-86070000D02*
X180415000Y-81570000D01*
X176415000Y-87320000D02*
X177915000Y-87320000D01*
X173915000Y-81570000D02*
X173915000Y-86070000D01*
X177915000Y-80320000D02*
X176415000Y-80320000D01*
%TO.C,SW2*%
X177915000Y-90480000D02*
X176415000Y-90480000D01*
X173915000Y-91730000D02*
X173915000Y-96230000D01*
X176415000Y-97480000D02*
X177915000Y-97480000D01*
X180415000Y-96230000D02*
X180415000Y-91730000D01*
%TO.C,D3*%
X121435000Y-82765000D02*
X123675000Y-82765000D01*
X123675000Y-82765000D02*
X123675000Y-78525000D01*
X123675000Y-78525000D02*
X121435000Y-78525000D01*
X121435000Y-78525000D02*
X121435000Y-82765000D01*
X122555000Y-83415000D02*
X122555000Y-82765000D01*
X122555000Y-77875000D02*
X122555000Y-78525000D01*
X121435000Y-82045000D02*
X123675000Y-82045000D01*
X121435000Y-81925000D02*
X123675000Y-81925000D01*
X121435000Y-82165000D02*
X123675000Y-82165000D01*
D11*
%TO.C,JP3*%
X169545000Y-84709000D02*
X169545000Y-81661000D01*
X165481000Y-81915000D02*
X165481000Y-81661000D01*
X165100000Y-81661000D02*
X165100000Y-84709000D01*
X169037000Y-81661000D02*
X165481000Y-81661000D01*
X165100000Y-84709000D02*
X169545000Y-84709000D01*
X169037000Y-81915000D02*
X169037000Y-81661000D01*
%TO.C,C3*%
X107672142Y-90931666D02*
X107719761Y-90979285D01*
X107767380Y-91122142D01*
X107767380Y-91217380D01*
X107719761Y-91360238D01*
X107624523Y-91455476D01*
X107529285Y-91503095D01*
X107338809Y-91550714D01*
X107195952Y-91550714D01*
X107005476Y-91503095D01*
X106910238Y-91455476D01*
X106815000Y-91360238D01*
X106767380Y-91217380D01*
X106767380Y-91122142D01*
X106815000Y-90979285D01*
X106862619Y-90931666D01*
X106767380Y-90598333D02*
X106767380Y-89979285D01*
X107148333Y-90312619D01*
X107148333Y-90169761D01*
X107195952Y-90074523D01*
X107243571Y-90026904D01*
X107338809Y-89979285D01*
X107576904Y-89979285D01*
X107672142Y-90026904D01*
X107719761Y-90074523D01*
X107767380Y-90169761D01*
X107767380Y-90455476D01*
X107719761Y-90550714D01*
X107672142Y-90598333D01*
%TO.C,J3*%
X131111666Y-73747380D02*
X131111666Y-74461666D01*
X131064047Y-74604523D01*
X130968809Y-74699761D01*
X130825952Y-74747380D01*
X130730714Y-74747380D01*
X131492619Y-73747380D02*
X132111666Y-73747380D01*
X131778333Y-74128333D01*
X131921190Y-74128333D01*
X132016428Y-74175952D01*
X132064047Y-74223571D01*
X132111666Y-74318809D01*
X132111666Y-74556904D01*
X132064047Y-74652142D01*
X132016428Y-74699761D01*
X131921190Y-74747380D01*
X131635476Y-74747380D01*
X131540238Y-74699761D01*
X131492619Y-74652142D01*
%TO.C,C1*%
X148312142Y-90931666D02*
X148359761Y-90979285D01*
X148407380Y-91122142D01*
X148407380Y-91217380D01*
X148359761Y-91360238D01*
X148264523Y-91455476D01*
X148169285Y-91503095D01*
X147978809Y-91550714D01*
X147835952Y-91550714D01*
X147645476Y-91503095D01*
X147550238Y-91455476D01*
X147455000Y-91360238D01*
X147407380Y-91217380D01*
X147407380Y-91122142D01*
X147455000Y-90979285D01*
X147502619Y-90931666D01*
X148407380Y-89979285D02*
X148407380Y-90550714D01*
X148407380Y-90265000D02*
X147407380Y-90265000D01*
X147550238Y-90360238D01*
X147645476Y-90455476D01*
X147693095Y-90550714D01*
%TO.C,C2*%
X122912142Y-90931666D02*
X122959761Y-90979285D01*
X123007380Y-91122142D01*
X123007380Y-91217380D01*
X122959761Y-91360238D01*
X122864523Y-91455476D01*
X122769285Y-91503095D01*
X122578809Y-91550714D01*
X122435952Y-91550714D01*
X122245476Y-91503095D01*
X122150238Y-91455476D01*
X122055000Y-91360238D01*
X122007380Y-91217380D01*
X122007380Y-91122142D01*
X122055000Y-90979285D01*
X122102619Y-90931666D01*
X122102619Y-90550714D02*
X122055000Y-90503095D01*
X122007380Y-90407857D01*
X122007380Y-90169761D01*
X122055000Y-90074523D01*
X122102619Y-90026904D01*
X122197857Y-89979285D01*
X122293095Y-89979285D01*
X122435952Y-90026904D01*
X123007380Y-90598333D01*
X123007380Y-89979285D01*
%TO.C,D1*%
X182697380Y-103608095D02*
X181697380Y-103608095D01*
X181697380Y-103370000D01*
X181745000Y-103227142D01*
X181840238Y-103131904D01*
X181935476Y-103084285D01*
X182125952Y-103036666D01*
X182268809Y-103036666D01*
X182459285Y-103084285D01*
X182554523Y-103131904D01*
X182649761Y-103227142D01*
X182697380Y-103370000D01*
X182697380Y-103608095D01*
X182697380Y-102084285D02*
X182697380Y-102655714D01*
X182697380Y-102370000D02*
X181697380Y-102370000D01*
X181840238Y-102465238D01*
X181935476Y-102560476D01*
X181983095Y-102655714D01*
%TO.C,D2*%
X98242380Y-103608095D02*
X97242380Y-103608095D01*
X97242380Y-103370000D01*
X97290000Y-103227142D01*
X97385238Y-103131904D01*
X97480476Y-103084285D01*
X97670952Y-103036666D01*
X97813809Y-103036666D01*
X98004285Y-103084285D01*
X98099523Y-103131904D01*
X98194761Y-103227142D01*
X98242380Y-103370000D01*
X98242380Y-103608095D01*
X97337619Y-102655714D02*
X97290000Y-102608095D01*
X97242380Y-102512857D01*
X97242380Y-102274761D01*
X97290000Y-102179523D01*
X97337619Y-102131904D01*
X97432857Y-102084285D01*
X97528095Y-102084285D01*
X97670952Y-102131904D01*
X98242380Y-102703333D01*
X98242380Y-102084285D01*
%TO.C,R1*%
X110942380Y-83351666D02*
X110466190Y-83685000D01*
X110942380Y-83923095D02*
X109942380Y-83923095D01*
X109942380Y-83542142D01*
X109990000Y-83446904D01*
X110037619Y-83399285D01*
X110132857Y-83351666D01*
X110275714Y-83351666D01*
X110370952Y-83399285D01*
X110418571Y-83446904D01*
X110466190Y-83542142D01*
X110466190Y-83923095D01*
X110942380Y-82399285D02*
X110942380Y-82970714D01*
X110942380Y-82685000D02*
X109942380Y-82685000D01*
X110085238Y-82780238D01*
X110180476Y-82875476D01*
X110228095Y-82970714D01*
X113069761Y-83637380D02*
X112498333Y-83637380D01*
X112784047Y-83637380D02*
X112784047Y-82637380D01*
X112688809Y-82780238D01*
X112593571Y-82875476D01*
X112498333Y-82923095D01*
X113688809Y-82637380D02*
X113784047Y-82637380D01*
X113879285Y-82685000D01*
X113926904Y-82732619D01*
X113974523Y-82827857D01*
X114022142Y-83018333D01*
X114022142Y-83256428D01*
X113974523Y-83446904D01*
X113926904Y-83542142D01*
X113879285Y-83589761D01*
X113784047Y-83637380D01*
X113688809Y-83637380D01*
X113593571Y-83589761D01*
X113545952Y-83542142D01*
X113498333Y-83446904D01*
X113450714Y-83256428D01*
X113450714Y-83018333D01*
X113498333Y-82827857D01*
X113545952Y-82732619D01*
X113593571Y-82685000D01*
X113688809Y-82637380D01*
X114450714Y-83637380D02*
X114450714Y-82637380D01*
X114545952Y-83256428D02*
X114831666Y-83637380D01*
X114831666Y-82970714D02*
X114450714Y-83351666D01*
%TO.C,R2*%
X110942380Y-80176666D02*
X110466190Y-80510000D01*
X110942380Y-80748095D02*
X109942380Y-80748095D01*
X109942380Y-80367142D01*
X109990000Y-80271904D01*
X110037619Y-80224285D01*
X110132857Y-80176666D01*
X110275714Y-80176666D01*
X110370952Y-80224285D01*
X110418571Y-80271904D01*
X110466190Y-80367142D01*
X110466190Y-80748095D01*
X110037619Y-79795714D02*
X109990000Y-79748095D01*
X109942380Y-79652857D01*
X109942380Y-79414761D01*
X109990000Y-79319523D01*
X110037619Y-79271904D01*
X110132857Y-79224285D01*
X110228095Y-79224285D01*
X110370952Y-79271904D01*
X110942380Y-79843333D01*
X110942380Y-79224285D01*
X113069761Y-80462380D02*
X112498333Y-80462380D01*
X112784047Y-80462380D02*
X112784047Y-79462380D01*
X112688809Y-79605238D01*
X112593571Y-79700476D01*
X112498333Y-79748095D01*
X113688809Y-79462380D02*
X113784047Y-79462380D01*
X113879285Y-79510000D01*
X113926904Y-79557619D01*
X113974523Y-79652857D01*
X114022142Y-79843333D01*
X114022142Y-80081428D01*
X113974523Y-80271904D01*
X113926904Y-80367142D01*
X113879285Y-80414761D01*
X113784047Y-80462380D01*
X113688809Y-80462380D01*
X113593571Y-80414761D01*
X113545952Y-80367142D01*
X113498333Y-80271904D01*
X113450714Y-80081428D01*
X113450714Y-79843333D01*
X113498333Y-79652857D01*
X113545952Y-79557619D01*
X113593571Y-79510000D01*
X113688809Y-79462380D01*
X114450714Y-80462380D02*
X114450714Y-79462380D01*
X114545952Y-80081428D02*
X114831666Y-80462380D01*
X114831666Y-79795714D02*
X114450714Y-80176666D01*
%TO.C,R3*%
X103338333Y-89352380D02*
X103005000Y-88876190D01*
X102766904Y-89352380D02*
X102766904Y-88352380D01*
X103147857Y-88352380D01*
X103243095Y-88400000D01*
X103290714Y-88447619D01*
X103338333Y-88542857D01*
X103338333Y-88685714D01*
X103290714Y-88780952D01*
X103243095Y-88828571D01*
X103147857Y-88876190D01*
X102766904Y-88876190D01*
X103671666Y-88352380D02*
X104290714Y-88352380D01*
X103957380Y-88733333D01*
X104100238Y-88733333D01*
X104195476Y-88780952D01*
X104243095Y-88828571D01*
X104290714Y-88923809D01*
X104290714Y-89161904D01*
X104243095Y-89257142D01*
X104195476Y-89304761D01*
X104100238Y-89352380D01*
X103814523Y-89352380D01*
X103719285Y-89304761D01*
X103671666Y-89257142D01*
X102957380Y-93360714D02*
X102957380Y-92741666D01*
X103338333Y-93075000D01*
X103338333Y-92932142D01*
X103385952Y-92836904D01*
X103433571Y-92789285D01*
X103528809Y-92741666D01*
X103766904Y-92741666D01*
X103862142Y-92789285D01*
X103909761Y-92836904D01*
X103957380Y-92932142D01*
X103957380Y-93217857D01*
X103909761Y-93313095D01*
X103862142Y-93360714D01*
X102957380Y-92408333D02*
X102957380Y-91789285D01*
X103338333Y-92122619D01*
X103338333Y-91979761D01*
X103385952Y-91884523D01*
X103433571Y-91836904D01*
X103528809Y-91789285D01*
X103766904Y-91789285D01*
X103862142Y-91836904D01*
X103909761Y-91884523D01*
X103957380Y-91979761D01*
X103957380Y-92265476D01*
X103909761Y-92360714D01*
X103862142Y-92408333D01*
X102957380Y-91170238D02*
X102957380Y-91075000D01*
X103005000Y-90979761D01*
X103052619Y-90932142D01*
X103147857Y-90884523D01*
X103338333Y-90836904D01*
X103576428Y-90836904D01*
X103766904Y-90884523D01*
X103862142Y-90932142D01*
X103909761Y-90979761D01*
X103957380Y-91075000D01*
X103957380Y-91170238D01*
X103909761Y-91265476D01*
X103862142Y-91313095D01*
X103766904Y-91360714D01*
X103576428Y-91408333D01*
X103338333Y-91408333D01*
X103147857Y-91360714D01*
X103052619Y-91313095D01*
X103005000Y-91265476D01*
X102957380Y-91170238D01*
%TO.C,R4*%
X100163333Y-89352380D02*
X99830000Y-88876190D01*
X99591904Y-89352380D02*
X99591904Y-88352380D01*
X99972857Y-88352380D01*
X100068095Y-88400000D01*
X100115714Y-88447619D01*
X100163333Y-88542857D01*
X100163333Y-88685714D01*
X100115714Y-88780952D01*
X100068095Y-88828571D01*
X99972857Y-88876190D01*
X99591904Y-88876190D01*
X101020476Y-88685714D02*
X101020476Y-89352380D01*
X100782380Y-88304761D02*
X100544285Y-89019047D01*
X101163333Y-89019047D01*
X99782380Y-93360714D02*
X99782380Y-92741666D01*
X100163333Y-93075000D01*
X100163333Y-92932142D01*
X100210952Y-92836904D01*
X100258571Y-92789285D01*
X100353809Y-92741666D01*
X100591904Y-92741666D01*
X100687142Y-92789285D01*
X100734761Y-92836904D01*
X100782380Y-92932142D01*
X100782380Y-93217857D01*
X100734761Y-93313095D01*
X100687142Y-93360714D01*
X99782380Y-92408333D02*
X99782380Y-91789285D01*
X100163333Y-92122619D01*
X100163333Y-91979761D01*
X100210952Y-91884523D01*
X100258571Y-91836904D01*
X100353809Y-91789285D01*
X100591904Y-91789285D01*
X100687142Y-91836904D01*
X100734761Y-91884523D01*
X100782380Y-91979761D01*
X100782380Y-92265476D01*
X100734761Y-92360714D01*
X100687142Y-92408333D01*
X99782380Y-91170238D02*
X99782380Y-91075000D01*
X99830000Y-90979761D01*
X99877619Y-90932142D01*
X99972857Y-90884523D01*
X100163333Y-90836904D01*
X100401428Y-90836904D01*
X100591904Y-90884523D01*
X100687142Y-90932142D01*
X100734761Y-90979761D01*
X100782380Y-91075000D01*
X100782380Y-91170238D01*
X100734761Y-91265476D01*
X100687142Y-91313095D01*
X100591904Y-91360714D01*
X100401428Y-91408333D01*
X100163333Y-91408333D01*
X99972857Y-91360714D01*
X99877619Y-91313095D01*
X99830000Y-91265476D01*
X99782380Y-91170238D01*
%TO.C,U1*%
X153757380Y-91566904D02*
X154566904Y-91566904D01*
X154662142Y-91519285D01*
X154709761Y-91471666D01*
X154757380Y-91376428D01*
X154757380Y-91185952D01*
X154709761Y-91090714D01*
X154662142Y-91043095D01*
X154566904Y-90995476D01*
X153757380Y-90995476D01*
X154757380Y-89995476D02*
X154757380Y-90566904D01*
X154757380Y-90281190D02*
X153757380Y-90281190D01*
X153900238Y-90376428D01*
X153995476Y-90471666D01*
X154043095Y-90566904D01*
X156535952Y-90257380D02*
X157202619Y-90257380D01*
X156774047Y-91257380D01*
X158012142Y-90590714D02*
X158012142Y-91257380D01*
X157774047Y-90209761D02*
X157535952Y-90924047D01*
X158155000Y-90924047D01*
X158535952Y-91257380D02*
X158535952Y-90257380D01*
X158535952Y-90733571D02*
X159107380Y-90733571D01*
X159107380Y-91257380D02*
X159107380Y-90257380D01*
X160155000Y-91162142D02*
X160107380Y-91209761D01*
X159964523Y-91257380D01*
X159869285Y-91257380D01*
X159726428Y-91209761D01*
X159631190Y-91114523D01*
X159583571Y-91019285D01*
X159535952Y-90828809D01*
X159535952Y-90685952D01*
X159583571Y-90495476D01*
X159631190Y-90400238D01*
X159726428Y-90305000D01*
X159869285Y-90257380D01*
X159964523Y-90257380D01*
X160107380Y-90305000D01*
X160155000Y-90352619D01*
X160440714Y-90257380D02*
X161012142Y-90257380D01*
X160726428Y-91257380D02*
X160726428Y-90257380D01*
X161774047Y-90590714D02*
X161774047Y-91257380D01*
X161535952Y-90209761D02*
X161297857Y-90924047D01*
X161916904Y-90924047D01*
X162488333Y-90257380D02*
X162583571Y-90257380D01*
X162678809Y-90305000D01*
X162726428Y-90352619D01*
X162774047Y-90447857D01*
X162821666Y-90638333D01*
X162821666Y-90876428D01*
X162774047Y-91066904D01*
X162726428Y-91162142D01*
X162678809Y-91209761D01*
X162583571Y-91257380D01*
X162488333Y-91257380D01*
X162393095Y-91209761D01*
X162345476Y-91162142D01*
X162297857Y-91066904D01*
X162250238Y-90876428D01*
X162250238Y-90638333D01*
X162297857Y-90447857D01*
X162345476Y-90352619D01*
X162393095Y-90305000D01*
X162488333Y-90257380D01*
X163726428Y-90257380D02*
X163250238Y-90257380D01*
X163202619Y-90733571D01*
X163250238Y-90685952D01*
X163345476Y-90638333D01*
X163583571Y-90638333D01*
X163678809Y-90685952D01*
X163726428Y-90733571D01*
X163774047Y-90828809D01*
X163774047Y-91066904D01*
X163726428Y-91162142D01*
X163678809Y-91209761D01*
X163583571Y-91257380D01*
X163345476Y-91257380D01*
X163250238Y-91209761D01*
X163202619Y-91162142D01*
X164107380Y-90257380D02*
X164726428Y-90257380D01*
X164393095Y-90638333D01*
X164535952Y-90638333D01*
X164631190Y-90685952D01*
X164678809Y-90733571D01*
X164726428Y-90828809D01*
X164726428Y-91066904D01*
X164678809Y-91162142D01*
X164631190Y-91209761D01*
X164535952Y-91257380D01*
X164250238Y-91257380D01*
X164155000Y-91209761D01*
X164107380Y-91162142D01*
%TO.C,U2*%
X128357380Y-91566904D02*
X129166904Y-91566904D01*
X129262142Y-91519285D01*
X129309761Y-91471666D01*
X129357380Y-91376428D01*
X129357380Y-91185952D01*
X129309761Y-91090714D01*
X129262142Y-91043095D01*
X129166904Y-90995476D01*
X128357380Y-90995476D01*
X128452619Y-90566904D02*
X128405000Y-90519285D01*
X128357380Y-90424047D01*
X128357380Y-90185952D01*
X128405000Y-90090714D01*
X128452619Y-90043095D01*
X128547857Y-89995476D01*
X128643095Y-89995476D01*
X128785952Y-90043095D01*
X129357380Y-90614523D01*
X129357380Y-89995476D01*
X131135952Y-90257380D02*
X131802619Y-90257380D01*
X131374047Y-91257380D01*
X132612142Y-90590714D02*
X132612142Y-91257380D01*
X132374047Y-90209761D02*
X132135952Y-90924047D01*
X132755000Y-90924047D01*
X133135952Y-91257380D02*
X133135952Y-90257380D01*
X133135952Y-90733571D02*
X133707380Y-90733571D01*
X133707380Y-91257380D02*
X133707380Y-90257380D01*
X134755000Y-91162142D02*
X134707380Y-91209761D01*
X134564523Y-91257380D01*
X134469285Y-91257380D01*
X134326428Y-91209761D01*
X134231190Y-91114523D01*
X134183571Y-91019285D01*
X134135952Y-90828809D01*
X134135952Y-90685952D01*
X134183571Y-90495476D01*
X134231190Y-90400238D01*
X134326428Y-90305000D01*
X134469285Y-90257380D01*
X134564523Y-90257380D01*
X134707380Y-90305000D01*
X134755000Y-90352619D01*
X135040714Y-90257380D02*
X135612142Y-90257380D01*
X135326428Y-91257380D02*
X135326428Y-90257380D01*
X136374047Y-90590714D02*
X136374047Y-91257380D01*
X136135952Y-90209761D02*
X135897857Y-90924047D01*
X136516904Y-90924047D01*
X137088333Y-90257380D02*
X137183571Y-90257380D01*
X137278809Y-90305000D01*
X137326428Y-90352619D01*
X137374047Y-90447857D01*
X137421666Y-90638333D01*
X137421666Y-90876428D01*
X137374047Y-91066904D01*
X137326428Y-91162142D01*
X137278809Y-91209761D01*
X137183571Y-91257380D01*
X137088333Y-91257380D01*
X136993095Y-91209761D01*
X136945476Y-91162142D01*
X136897857Y-91066904D01*
X136850238Y-90876428D01*
X136850238Y-90638333D01*
X136897857Y-90447857D01*
X136945476Y-90352619D01*
X136993095Y-90305000D01*
X137088333Y-90257380D01*
X138326428Y-90257380D02*
X137850238Y-90257380D01*
X137802619Y-90733571D01*
X137850238Y-90685952D01*
X137945476Y-90638333D01*
X138183571Y-90638333D01*
X138278809Y-90685952D01*
X138326428Y-90733571D01*
X138374047Y-90828809D01*
X138374047Y-91066904D01*
X138326428Y-91162142D01*
X138278809Y-91209761D01*
X138183571Y-91257380D01*
X137945476Y-91257380D01*
X137850238Y-91209761D01*
X137802619Y-91162142D01*
X138707380Y-90257380D02*
X139326428Y-90257380D01*
X138993095Y-90638333D01*
X139135952Y-90638333D01*
X139231190Y-90685952D01*
X139278809Y-90733571D01*
X139326428Y-90828809D01*
X139326428Y-91066904D01*
X139278809Y-91162142D01*
X139231190Y-91209761D01*
X139135952Y-91257380D01*
X138850238Y-91257380D01*
X138755000Y-91209761D01*
X138707380Y-91162142D01*
%TO.C,U3*%
X111847380Y-91566904D02*
X112656904Y-91566904D01*
X112752142Y-91519285D01*
X112799761Y-91471666D01*
X112847380Y-91376428D01*
X112847380Y-91185952D01*
X112799761Y-91090714D01*
X112752142Y-91043095D01*
X112656904Y-90995476D01*
X111847380Y-90995476D01*
X111847380Y-90614523D02*
X111847380Y-89995476D01*
X112228333Y-90328809D01*
X112228333Y-90185952D01*
X112275952Y-90090714D01*
X112323571Y-90043095D01*
X112418809Y-89995476D01*
X112656904Y-89995476D01*
X112752142Y-90043095D01*
X112799761Y-90090714D01*
X112847380Y-90185952D01*
X112847380Y-90471666D01*
X112799761Y-90566904D01*
X112752142Y-90614523D01*
X114038333Y-91257380D02*
X114038333Y-90257380D01*
X114609761Y-91257380D01*
X114609761Y-90257380D01*
X115085952Y-90733571D02*
X115419285Y-90733571D01*
X115562142Y-91257380D02*
X115085952Y-91257380D01*
X115085952Y-90257380D01*
X115562142Y-90257380D01*
X116466904Y-90257380D02*
X115990714Y-90257380D01*
X115943095Y-90733571D01*
X115990714Y-90685952D01*
X116085952Y-90638333D01*
X116324047Y-90638333D01*
X116419285Y-90685952D01*
X116466904Y-90733571D01*
X116514523Y-90828809D01*
X116514523Y-91066904D01*
X116466904Y-91162142D01*
X116419285Y-91209761D01*
X116324047Y-91257380D01*
X116085952Y-91257380D01*
X115990714Y-91209761D01*
X115943095Y-91162142D01*
X117419285Y-90257380D02*
X116943095Y-90257380D01*
X116895476Y-90733571D01*
X116943095Y-90685952D01*
X117038333Y-90638333D01*
X117276428Y-90638333D01*
X117371666Y-90685952D01*
X117419285Y-90733571D01*
X117466904Y-90828809D01*
X117466904Y-91066904D01*
X117419285Y-91162142D01*
X117371666Y-91209761D01*
X117276428Y-91257380D01*
X117038333Y-91257380D01*
X116943095Y-91209761D01*
X116895476Y-91162142D01*
X118371666Y-90257380D02*
X117895476Y-90257380D01*
X117847857Y-90733571D01*
X117895476Y-90685952D01*
X117990714Y-90638333D01*
X118228809Y-90638333D01*
X118324047Y-90685952D01*
X118371666Y-90733571D01*
X118419285Y-90828809D01*
X118419285Y-91066904D01*
X118371666Y-91162142D01*
X118324047Y-91209761D01*
X118228809Y-91257380D01*
X117990714Y-91257380D01*
X117895476Y-91209761D01*
X117847857Y-91162142D01*
%TO.C,SW1*%
D10*
X177488809Y-84886666D02*
X177526904Y-84772380D01*
X177526904Y-84581904D01*
X177488809Y-84505714D01*
X177450714Y-84467619D01*
X177374523Y-84429523D01*
X177298333Y-84429523D01*
X177222142Y-84467619D01*
X177184047Y-84505714D01*
X177145952Y-84581904D01*
X177107857Y-84734285D01*
X177069761Y-84810476D01*
X177031666Y-84848571D01*
X176955476Y-84886666D01*
X176879285Y-84886666D01*
X176803095Y-84848571D01*
X176765000Y-84810476D01*
X176726904Y-84734285D01*
X176726904Y-84543809D01*
X176765000Y-84429523D01*
X176726904Y-84162857D02*
X177526904Y-83972380D01*
X176955476Y-83820000D01*
X177526904Y-83667619D01*
X176726904Y-83477142D01*
X177526904Y-82753333D02*
X177526904Y-83210476D01*
X177526904Y-82981904D02*
X176726904Y-82981904D01*
X176841190Y-83058095D01*
X176917380Y-83134285D01*
X176955476Y-83210476D01*
%TO.C,SW2*%
X177488809Y-95046666D02*
X177526904Y-94932380D01*
X177526904Y-94741904D01*
X177488809Y-94665714D01*
X177450714Y-94627619D01*
X177374523Y-94589523D01*
X177298333Y-94589523D01*
X177222142Y-94627619D01*
X177184047Y-94665714D01*
X177145952Y-94741904D01*
X177107857Y-94894285D01*
X177069761Y-94970476D01*
X177031666Y-95008571D01*
X176955476Y-95046666D01*
X176879285Y-95046666D01*
X176803095Y-95008571D01*
X176765000Y-94970476D01*
X176726904Y-94894285D01*
X176726904Y-94703809D01*
X176765000Y-94589523D01*
X176726904Y-94322857D02*
X177526904Y-94132380D01*
X176955476Y-93980000D01*
X177526904Y-93827619D01*
X176726904Y-93637142D01*
X176803095Y-93370476D02*
X176765000Y-93332380D01*
X176726904Y-93256190D01*
X176726904Y-93065714D01*
X176765000Y-92989523D01*
X176803095Y-92951428D01*
X176879285Y-92913333D01*
X176955476Y-92913333D01*
X177069761Y-92951428D01*
X177526904Y-93408571D01*
X177526904Y-92913333D01*
%TO.C,D3*%
D11*
X123007380Y-80748095D02*
X122007380Y-80748095D01*
X122007380Y-80510000D01*
X122055000Y-80367142D01*
X122150238Y-80271904D01*
X122245476Y-80224285D01*
X122435952Y-80176666D01*
X122578809Y-80176666D01*
X122769285Y-80224285D01*
X122864523Y-80271904D01*
X122959761Y-80367142D01*
X123007380Y-80510000D01*
X123007380Y-80748095D01*
X122007380Y-79843333D02*
X122007380Y-79224285D01*
X122388333Y-79557619D01*
X122388333Y-79414761D01*
X122435952Y-79319523D01*
X122483571Y-79271904D01*
X122578809Y-79224285D01*
X122816904Y-79224285D01*
X122912142Y-79271904D01*
X122959761Y-79319523D01*
X123007380Y-79414761D01*
X123007380Y-79700476D01*
X122959761Y-79795714D01*
X122912142Y-79843333D01*
X124912380Y-84716904D02*
X123912380Y-84716904D01*
X124912380Y-84145476D02*
X124340952Y-84574047D01*
X123912380Y-84145476D02*
X124483809Y-84716904D01*
%TD*%
M02*
